<?xml version="1.0" standalone="no"?><!DOCTYPE svg PUBLIC "-//W3C//DTD SVG 1.1//EN" "http://www.w3.org/Graphics/SVG/1.1/DTD/svg11.dtd">
<svg xmlns="http://www.w3.org/2000/svg" width="934.2629200596026" height="577.6403684213888">
	<rect width="100%" height="100%" style="fill: #181048;" />
	<path fill-rule="evenodd" fill="#3078bc" d="M648.218389824239 560.1318359981806 L318.0136116672423 567.6403684213888 L295.4880143976177 257.856523142663 L361.41520438624116 235.35936728373235 L415.85206445450046 240.99076660113852 L493.4402328276518 225.3479907194548 L541.6199825432376 240.99076660113852 L626.3185035898816 234.70521483777105 L645.4880143976176 303.5618701278735 L644.8623033623503 334.8474218912409 L679.9021213373217 344.23308742025114 L651.7451247502911 399.2956585237779 L700.5505855011444 416.8155675112637 L666.1364785614401 473.1295606853251 L629.8452385159338 473.1295606853251 L613.5767515989828 524.4378655772477 L656.75081303243 530.0692648946539 M453.2030649657663 389.7356641704209 L446.5664121500154 387.1699386723783 L439.92975933426453 389.7356641704209 L437.1807685021263 395.9298717235557 L439.92975933426453 402.12407927669057 L446.5664121500154 404.6898047747331 L453.2030649657663 402.12407927669057 L455.95205579790456 395.9298717235557 M429.57786795162525 378.68757499795834 L420.28654866878685 374.65571832632077 L410.9952293859484 378.68757499795834 L407.14663843472806 388.4213393003475 L410.9952293859484 398.1551036027367 L420.28654866878685 402.1869602743742 L429.57786795162525 398.1551036027367 L433.4264589028456 388.4213393003475 M737.0537168589357 47.12625530782777 L839.0238957222323 267.60380844423116 L752.675772855338 299.515071242866 L683.2218479406624 317.0349802303518 L656.9419844594338 312.6550029834803 L666.3276499884441 280.11802914957815 L701.9931789986829 277.6151850085088 L742.0386852557933 211.28981527016973 L696.7740542998379 76.39908045997981 L551.9760595618095 43.59953469059217 L551.9760595618095 112.39858191418574 L631.1749627610627 132.39830494430012 L691.9741207726104 171.59776208332434 L647.1747411851541 191.59748511343878 L525.5764251620586 153.99800581682368 L484.77699018062515 89.99889212045761 L507.1766799743533 62.79926879950203 L528.7763808468769 10 L623.1750735490168 25.199789502886922 L667.1744642152686 47.59947929661507 L731.9735668328392 68.39919124793404 L735.973511438862 109.998615150572 L747.9733452569305 112.39858191418574 M260.26978116013663 204.10126761574963 L259.39087491013663 206.937207738354 L260.26978116013663 209.7731442846797 L262.43774991013663 210.75751737733106 L264.5998630998339 209.7731442846797 L265.47291378953116 206.91376761574963 L264.5998630998339 204.10126761574963 L262.43774991013663 203.11689511914471 M224.2697773454394 204.10126761574963 L223.3908710954394 206.937207738354 L224.2697773454394 209.7731442846797 L226.4377460954394 210.75751737733106 L228.59985928513666 209.7731442846797 L229.47290997483393 206.91376761574963 L228.59985928513666 204.10126761574963 L226.4377460954394 203.11689511914471 M175.91765980698725 203.73798922677258 L175.22624592759271 205.87079838891248 L180.14812092759271 205.87079838891248 L179.40984349228998 203.69697288651685 L177.69890408494135 202.95283095021466 M133.49760632493158 203.8844700254939 L132.70659069993158 206.6676755346797 L133.25736622788568 209.55048874993543 L135.48392872788568 210.83954886574963 L137.41752247788568 209.87275199074963 L138.21440319993158 206.98408083100537 L137.44096379258295 203.89618829865674 L135.46049694993158 202.95283095021466 M274.66425518967765 200.71454838891248 L274.66425518967765 206.4333005346797 L274.8458919999804 209.65009526391248 L275.5080090043749 210.58759526391248 L276.7267475602831 210.93329981942395 L278.23847393967765 210.47040895600537 L279.1525326249804 209.32197169442395 L279.39861874558585 205.9645493425868 L279.39861874558585 200.71454838891248 L282.69159893967765 200.71454838891248 L282.69159893967765 213.15986351151685 L279.63299374558585 213.15986351151685 L279.63299374558585 211.296578208401 L277.84588437058585 212.86689476151685 L275.5080090043749 213.4411116041682 L273.25800518967765 212.89033130784253 L271.8166027543749 211.34345606942395 L271.37127499558585 208.58954743523816 L271.37127499558585 200.71454838891248 M217.39855389573236 200.71454838891248 L217.39855389573236 213.15986351151685 L214.1055927751269 213.15986351151685 L214.1055927751269 200.71454838891248 M148.03855519272943 200.71454838891248 L148.03855519272943 213.15986351151685 L144.74559407212396 213.15986351151685 L144.74559407212396 200.71454838891248 M83.960248040935 200.71454838891248 L83.960248040935 206.4333005346797 L84.14188961960932 209.65009526391248 L84.80399708726068 210.58759526391248 L86.02274994828363 210.93329981942395 L87.534466790935 210.47040895600537 L88.44853024460932 209.32197169442395 L88.69462590195795 205.9645493425868 L88.69462590195795 200.71454838891248 L91.987591790935 200.71454838891248 L91.987591790935 213.15986351151685 L88.92900090195795 213.15986351151685 L88.92900090195795 211.296578208401 L87.14189152695795 212.86689476151685 L84.80399708726068 213.4411116041682 L82.553998040935 212.89033130784253 L81.11259322144647 211.34345606942395 L80.66727738358637 208.58954743523816 L80.66727738358637 200.71454838891248 M267.05494503953116 202.26728455205182 L268.85962109543937 206.9020493425868 L267.03735928513663 211.58369139809827 L262.4494610307421 213.4411116041682 L259.18579678513663 212.66767577309827 L256.8244610307421 210.40009812493543 L256.0158787248339 206.7614252962611 L256.8244610307421 203.58564273495892 L259.11549191453116 201.24189154286603 L262.42603878953116 200.43330089230756 M244.5704899308886 200.82587794442395 L245.93573193528314 201.82783023495892 L246.58026318528314 203.21064130444745 L246.76189999558588 205.42548731942395 L246.76189999558588 213.15986351151685 L243.4689388749804 213.15986351151685 L243.4689388749804 206.80829838891248 L243.25800518967768 204.20087889809827 L242.57244687058588 203.28095511574963 L241.42986874558588 202.95283095021466 L239.8947201249804 203.421582738354 L238.96307568528314 204.66376976151685 L238.7111149308886 207.5231428541682 L238.7111149308886 213.15986351151685 L235.41815381028314 213.15986351151685 L235.41815381028314 200.71454838891248 L238.4767399308886 200.71454838891248 L238.4767399308886 202.54267470021466 L242.5783024308886 200.43330089230756 M231.05494122483393 202.26728455205182 L232.85961728074213 206.9020493425868 L231.0373554704394 211.58369139809827 L226.44945721604486 213.4411116041682 L223.1857929704394 212.66767577309827 L220.82445721604486 210.40009812493543 L220.01587491013666 206.7614252962611 L220.82445721604486 203.58564273495892 L223.11548809983393 201.24189154286603 L226.42603497483393 200.43330089230756 M209.09361462571283 201.2653316654704 L210.80456356980463 203.72626976151685 L207.69909481980463 204.3004866041682 L206.94323163010736 203.18720475812177 L205.35534481980463 202.80048505444745 L203.4920559404101 203.16376821179608 L203.11705212571283 203.831738988354 L203.44517331101557 204.42939237733106 L206.52134518601557 205.3551741041682 L210.19518475510736 206.820020238354 L211.2264309404101 209.26923708100537 L209.79673962571283 212.210645238354 L205.56627850510736 213.4411116041682 L201.54088597275873 212.4098606504939 L199.60142712571283 209.60908011574963 L202.9061184404101 209.105176488354 L203.76158337571283 210.5641587175868 L205.56627850510736 211.0622044004939 L207.48814206101557 210.5934567846797 L207.92173962571283 209.7145481504939 L207.68736462571283 209.09345463891248 L206.58581356980463 208.6598618425868 L201.53502087571283 207.054395238354 L200.05846600510736 204.25361351151685 L201.33580784775873 201.53486088891248 L205.29675106980463 200.43330089230756 M195.22650341965814 200.82587794442395 L196.5917358873095 201.82783023495892 L197.2362671373095 203.21064130444745 L197.4179134843554 205.42548731942395 L197.4179134843554 213.15986351151685 L194.12494282700678 213.15986351151685 L194.12494282700678 206.80829838891248 L193.91399960496088 204.20087889809827 L193.22845082261225 203.28095511574963 L192.08587269761225 202.95283095021466 L190.55072407700678 203.421582738354 L189.6190796373095 204.66376976151685 L189.36712841965814 207.5231428541682 L189.36712841965814 213.15986351151685 L186.0741577623095 213.15986351151685 L186.0741577623095 200.71454838891248 L189.13275341965814 200.71454838891248 L189.13275341965814 202.54267470021466 L193.23431591965814 200.43330089230756 M181.8825016496386 202.26728455205182 L183.41765980698725 207.88642601151685 L175.16765217759271 207.88642601151685 L175.9645328996386 210.16572074074963 L177.86296467759271 210.980176488354 L179.16374783494135 210.55829838891248 L179.96062855698725 209.19892386574963 L183.24187855698725 209.749707738354 L181.24382595994135 212.4977536596797 L177.82781224228998 213.4411116041682 L173.02312474228998 211.32001952309827 L171.79265599228998 207.03095392365674 L173.40983967759271 202.1852524675868 L177.49969105698725 200.43330089230756 M160.15978436448236 200.9254856504939 L161.6011867997851 202.41376892705182 L163.37071995713373 200.9254856504939 L165.39805989243646 200.43330089230756 L167.71837811448236 200.98993794102887 L169.13633923508783 202.62470618863324 L169.47619061448236 205.2028317846797 L169.47619061448236 213.15986351151685 L166.18321995713373 213.15986351151685 L166.18321995713373 206.04658083100537 L165.84337811448236 203.6559565462611 L164.43712811448236 202.95283095021466 L163.13634495713373 203.3747054733775 L162.25743870713373 204.61103634019116 L161.98790173508783 207.18329981942395 L161.98790173508783 213.15986351151685 L158.6949310777392 213.15986351151685 L158.6949310777392 206.33955077309827 L158.5191498277392 203.99579958100537 L157.97422986008783 203.21064130444745 L156.9722805497851 202.95283095021466 L155.60118298508783 203.36298720021466 L154.72814183213373 204.54657987733106 L154.46446995713373 207.1129866041682 L154.46446995713373 213.15986351151685 L151.1714992997851 213.15986351151685 L151.1714992997851 200.71454838891248 L154.20665364243646 200.71454838891248 L154.20665364243646 202.41376892705182 L158.0855617997851 200.43330089230756 M103.73362641312738 201.2653316654704 L105.44456105210443 203.72626976151685 L102.33909230210443 204.3004866041682 L101.58323388077875 203.18720475812177 L99.99534230210443 202.80048505444745 L98.13206295945307 203.16376821179608 L97.75706391312738 203.831738988354 L98.0851898668017 204.42939237733106 L101.1613617418017 205.3551741041682 L104.83518700577875 206.820020238354 L105.86643795945307 209.26923708100537 L104.43675141312738 212.210645238354 L100.20628075577875 213.4411116041682 L96.1808929918017 212.4098606504939 L94.24143891312738 209.60908011574963 L97.54612545945307 209.105176488354 L98.40159516312738 210.5641587175868 L100.20628075577875 211.0622044004939 L102.1281586168017 210.5934567846797 L102.56175141312738 209.7145481504939 L102.32737641312738 209.09345463891248 L101.22581105210443 208.6598618425868 L96.17503266312738 207.054395238354 L94.69846825577875 204.25361351151685 L95.9758148668017 201.53486088891248 L99.93674855210443 200.43330089230756 M68.22177987076898 203.76142577309827 L70.12021641709467 203.76142577309827 L72.86240200974603 203.49189237733106 L73.94639115311762 202.64814333100537 L74.33896880128046 201.3122053541682 L73.78818373658319 199.76533011574963 L72.39365439393183 199.00361255784253 L69.8975620744433 198.88642565388898 L68.22177987076898 198.88642565388898 M55.233561801692446 201.4879877962611 L47.018715548297365 204.62861136574963 L55.233561801692446 207.88642601151685 L55.233561801692446 211.20283202309827 L43.456216934105356 206.0817368425868 L43.456216934105356 203.2458002962611 L55.233561801692446 198.14814106602887 M289.5626316545214 200.71454838891248 L291.81263546921866 200.71454838891248 L291.81263546921866 203.33955065388898 L289.5626316545214 203.33955065388898 L289.5626316545214 208.35517362733106 L289.62708096482413 210.1305659212611 L289.92004971482413 210.54658011574963 L290.47669033982413 210.7106442846797 L291.80090527512687 210.3942377962611 L292.0821629045214 212.94892624993543 L289.48059658982413 213.4411116041682 L287.87512402512687 213.1422849096797 L286.8262920854296 212.36884550233106 L286.36341671921866 211.08564452309827 L286.25794033982413 208.76532987733106 L286.25794033982413 203.33955065388898 L284.7462139604296 203.33955065388898 L284.7462139604296 200.71454838891248 L286.25794033982413 200.71454838891248 L286.25794033982413 198.24189142365674 L289.5626316545214 196.3200186290286 M217.39855389573236 195.98017574329594 L217.39855389573236 199.0270491041682 L214.1055927751269 199.0270491041682 L214.1055927751269 195.98017574329594 M148.03855519272943 195.98017574329594 L148.03855519272943 199.0270491041682 L144.74559407212396 199.0270491041682 L144.74559407212396 195.98017574329594 M141.49565319993158 195.98017574329594 L141.49565319993158 213.15986351151685 L138.43705754258295 213.15986351151685 L138.43705754258295 211.3317377962611 L136.63822751023432 212.91962818284253 L134.54642872788568 213.4411116041682 L130.87260823228021 211.7125959791682 L129.34330563523432 206.89033106942395 L130.83159069993158 202.07978383679608 L134.59331135728021 200.43330089230756 L138.20268254258295 202.1676732697032 L138.20268254258295 195.98017574329594 M112.0268402574267 195.98017574329594 L112.0268402574267 202.29658202309827 L115.8354340074267 200.43330089230756 L117.8862152574267 200.8551754154704 L119.2631683824267 201.93329886574963 L119.89598374344965 203.38642374654034 L120.06590466477533 205.85908011574963 L120.06590466477533 213.15986351151685 L116.7729340074267 213.15986351151685 L116.7729340074267 206.5856428541682 L116.58543686844965 204.10126761574963 L115.9233246324267 203.26337591786603 L114.73387341477533 202.95283095021466 L113.26902966477533 203.35126892705182 L112.32566933610102 204.55244020600537 L112.0268402574267 206.92548588891248 L112.0268402574267 213.15986351151685 L108.73387436844965 213.15986351151685 L108.73387436844965 195.98017574329594 M70.31943659760614 195.98017574329594 L74.44443802811762 196.23798654456357 L76.91708903290888 197.91962818284253 L77.91318516709467 201.2653316654704 L77.3389683244433 203.92548517365674 L75.87998728730341 205.6188459791682 L74.08115487076898 206.4333005346797 L70.4834995744433 206.67939380784253 L68.22177987076898 206.67939380784253 L68.22177987076898 213.15986351151685 L64.75302796342035 213.15986351151685 L64.75302796342035 195.98017574329594 M194.0374261942624 438.0310204914244 L192.2444517222165 438.60523733407575 L191.5999204722165 439.7653940609129 L192.11554356486786 440.9607079914244 L193.42804737956513 441.4646151950987 L195.12726612956513 440.8786776950987 L195.9124261942624 439.7888329914244 L196.04132481486786 438.1833628109129 L196.04132481486786 437.52711328775007 M213.6742097941159 434.0818003109129 L212.98279591472138 436.2146142414244 L217.90467091472138 436.2146142414244 L217.16639347941864 434.04078516275007 L215.45545407207 433.29664263040144 M154.99420472056855 434.0818003109129 L154.30280037791718 436.2146142414244 L159.22467537791718 436.2146142414244 L158.48639317424286 434.04078516275007 L156.77545376689423 433.29664263040144 M219.63905163676728 432.6111010006102 L221.1742097941159 438.23023828775007 L212.92420216472138 438.23023828775007 L213.72108288676728 440.50953420907575 L215.61951466472138 441.32398638040144 L216.92029782207 440.9021142414244 L217.7171785441159 439.54273733407575 L220.9984285441159 440.09351763040144 L219.00037594707 442.8415683200987 L215.58436222941864 443.78492388040144 L210.77967472941864 441.6638329914244 L209.54920597941864 437.37476858407575 L211.16638966472138 432.5290659359129 L215.2562410441159 430.77711138040144 M197.3186761942624 431.2985971859129 L198.8362485972165 432.6228168895872 L199.2757017222165 435.5700829914244 L199.24054928691376 439.4138315609129 L199.3987543192624 441.83375391275007 L199.99054737956513 443.50367578775007 L196.7327386942624 443.50367578775007 L196.41632862956513 442.53101858407575 L196.29914112956513 442.14429888040144 L194.49445553691376 443.37476763040144 L192.44367428691376 443.78492388040144 L189.41437550456513 442.74195703775007 L188.30694981486786 440.10523828775007 L188.81086178691376 438.22437795907575 L190.2229673472165 436.95875200540144 L192.84210987956513 436.1911729267271 L196.04132481486786 435.38258108407575 L196.04132481486786 435.0544575145872 L195.57257481486786 433.7009433200987 L193.8030511942624 433.29664263040144 L192.43195362956513 433.6423471859129 L191.6350824442624 434.85523733407575 L188.6468011942624 434.3161753109129 L190.38117237956513 431.6443017414244 L194.0374261942624 430.77711138040144 M183.63904782207 431.16969141275007 L185.00428028972138 432.1716454914244 L185.64881153972138 433.5544565609129 L185.8304483500241 435.76930078775007 L185.8304483500241 443.50367578775007 L182.53748722941864 443.50367578775007 L182.53748722941864 437.1521142414244 L182.32654400737275 434.5446923664244 L181.6409952250241 433.62476858407575 L180.4984171000241 433.29664263040144 L178.96326371104706 433.7653950145872 L178.03162403972138 435.00758203775007 L177.77967282207 437.8669575145872 L177.77967282207 443.50367578775007 L174.48670216472138 443.50367578775007 L174.48670216472138 431.0583642414244 L177.54529782207 431.0583642414244 L177.54529782207 432.88648638040144 L181.64686032207 430.77711138040144 M173.09601612956513 431.39820608407575 L172.07648583323945 434.26929983407575 L170.52961178691376 433.7302401950987 L169.35773678691376 434.1110971859129 L168.6018735972165 435.4880503109129 L168.32648583323945 439.65992483407575 L168.32648583323945 443.50367578775007 L165.0335151758908 443.50367578775007 L165.0335151758908 431.0583642414244 L168.09211083323945 431.0583642414244 L168.09211083323945 432.82789263040144 L169.50422116191376 431.1755517414244 L170.92804737956513 430.77711138040144 M160.9590513315915 432.6111010006102 L162.49420472056855 438.23023828775007 L154.24420662791718 438.23023828775007 L155.0410825815915 440.50953420907575 L156.93951912791718 441.32398638040144 L158.24029751689423 440.9021142414244 L159.03717347056855 439.54273733407575 L162.31842347056855 440.09351763040144 L160.32037564189423 442.8415683200987 L156.90436192424286 443.78492388040144 L152.09967442424286 441.6638329914244 L150.86920567424286 437.37476858407575 L152.48639412791718 432.5290659359129 L156.57623597056855 430.77711138040144 M124.2795474138974 436.70680078775007 L128.9670474138974 436.70680078775007 L126.59985848338593 430.3318003109129 M205.97517796428193 431.0583642414244 L208.22517224223603 431.0583642414244 L208.22517224223603 433.68336233407575 L205.97517796428193 433.68336233407575 L205.97517796428193 438.69899067193586 L206.03962727458466 440.47437700540144 L206.33259602458466 440.89039358407575 L206.88923664958466 441.0544589450987 L208.2134515848874 440.73804888040144 L208.49470921428193 443.29273733407575 L205.89314289958466 443.78492388040144 L204.2876703348874 443.4860995700987 L203.2388479319333 442.71266016275007 L202.77595349223603 441.4294579914244 L202.67048664958466 439.10914453775007 L202.67048664958466 433.68336233407575 L201.1587698069333 433.68336233407575 L201.1587698069333 431.0583642414244 L202.67048664958466 431.0583642414244 L202.67048664958466 428.58570608407575 L205.97517796428193 426.6638329914244 M147.29517289073456 431.0583642414244 L149.54517193706025 431.0583642414244 L149.54517193706025 433.68336233407575 L147.29517289073456 433.68336233407575 L147.29517289073456 438.69899067193586 L147.35962696940888 440.47437700540144 L147.65259571940888 440.89039358407575 L148.20923634440888 441.0544589450987 L149.5334560480832 440.73804888040144 L149.81470414073456 443.29273733407575 L147.21314259440888 443.78492388040144 L145.6076747980832 443.4860995700987 L144.5588476267575 442.71266016275007 L144.09595318706025 441.4294579914244 L143.99048634440888 439.10914453775007 L143.99048634440888 433.68336233407575 L142.4787695017575 433.68336233407575 L142.4787695017575 431.0583642414244 L143.99048634440888 431.0583642414244 L143.99048634440888 428.58570608407575 L147.29517289073456 426.6638329914244 M140.45911141307343 426.32398638040144 L140.45911141307343 443.50367578775007 L137.1661407557248 443.50367578775007 L137.1661407557248 426.32398638040144 M128.47485848338593 426.32398638040144 L135.3537661638974 443.50367578775007 L131.58032961757172 443.50367578775007 L130.0803286638974 439.60133108407575 L123.21314164073456 439.60133108407575 L121.79517098338593 443.50367578775007 L118.11548539073456 443.50367578775007 L124.8068911638974 426.32398638040144 M276.57286473186 409.8151329448851 L275.8814508524655 411.94794568330366 L280.8033258524655 411.94794568330366 L280.06504841716276 409.77411779672224 L278.3541185465573 409.02997586042005 M262.1608240214108 409.9616173198851 L261.3698083964108 412.744821636978 L261.92059346110807 415.6276348522337 L264.14715596110807 416.9166961601408 L266.08074971110807 415.9499004772337 L266.8776208964108 413.06122812539655 L266.10419102580533 409.9733367851408 L264.1237146464108 409.02997586042005 M180.54887600810517 409.8151329448851 L179.85746212871064 411.94794568330366 L184.77933712871064 411.94794568330366 L184.0410596934079 409.77411779672224 L182.33012028605927 409.02997586042005 M166.13682576091279 409.9616173198851 L165.34581013591279 412.744821636978 L165.89659043223847 415.6276348522337 L168.12315293223847 416.9166961601408 L170.05674668223847 415.9499004772337 L170.85362263591279 413.06122812539655 L170.08018322856415 409.9733367851408 L168.09971638591279 409.02997586042005 M255.36577053935517 406.79169449121076 L255.36577053935517 419.23700842172224 L252.0728094187497 419.23700842172224 L252.0728094187497 406.79169449121076 M219.2954713907956 406.79169449121076 L219.2954713907956 412.510446636978 L219.47710820109833 415.72724136621076 L220.1392156687497 416.66474255830366 L221.35796376140107 417.01044592172224 L222.8696901407956 416.54755505830366 L223.78374882609833 415.39911898881513 L224.02984448344696 412.0416954448851 L224.02984448344696 406.79169449121076 L227.3228151407956 406.79169449121076 L227.3228151407956 419.23700842172224 L224.26421948344696 419.23700842172224 L224.26421948344696 417.373727886978 L222.47711010844696 418.94403967172224 L220.1392156687497 419.5182588985594 L217.8892213907956 418.9674774101408 L216.4478094187497 417.42060217172224 L216.00250073344696 414.66669592172224 L216.00250073344696 406.79169449121076 M159.3417770472287 406.79169449121076 L159.3417770472287 419.23700842172224 L156.04880638988007 419.23700842172224 L156.04880638988007 406.79169449121076 M282.5376970377682 408.34443125039655 L284.07286473186 413.96356972962934 L275.8228571024655 413.96356972962934 L276.6197282877682 416.2428668430479 L278.5181696024655 417.0573213985594 L279.8189622965573 416.63544568330366 L280.61583348186 415.2760711601408 L283.89708348186 415.8268538406523 L281.8990404215573 418.5748985698851 L278.48301716716276 419.5182588985594 L273.67832966716276 417.39716562539655 L272.44786091716276 413.108100025955 L274.0650446024655 408.262399761978 L278.15489598186 406.51044461042005 M247.0608408060788 407.3424765756758 L248.77177067668427 409.80341467172224 L245.66630192668427 410.3776338985594 L244.91044827373017 409.2643514564665 L243.32255192668427 408.8776317527922 L241.4592725840329 409.2409137180479 L241.08426876933564 409.9088827064665 L241.41239949138154 410.50653967172224 L244.48857136638154 411.4323225906523 L248.16240139873017 412.8971651485594 L249.1936475840329 415.34638437539655 L247.7639658060788 418.2877913406523 L243.53349514873017 419.5182588985594 L239.50810261638154 418.4870079448851 L237.56864376933564 415.6862286022337 L240.8733350840329 415.1823213985594 L241.72880001933564 416.6413048198851 L243.53349514873017 417.139352886978 L245.45536824138154 416.6706016948851 L245.88895626933564 415.7916942527922 L245.65458126933564 415.17060312539655 L244.55302067668427 414.7370079448851 L239.50223751933564 413.1315401485594 L238.02568264873017 410.33075842172224 L239.30302449138154 407.61200818330366 L243.26395817668427 406.51044461042005 M186.51371785075654 408.34443125039655 L188.04887600810517 413.96356972962934 L179.79886837871064 413.96356972962934 L180.59574910075654 416.2428668430479 L182.49418087871064 417.0573213985594 L183.79496403605927 416.63544568330366 L184.59184475810517 415.2760711601408 L187.87309475810517 415.8268538406523 L185.87504216105927 418.5748985698851 L182.4590284434079 419.5182588985594 L177.6543409434079 417.39716562539655 L176.4238721934079 413.108100025955 L178.04106064708222 408.262399761978 L182.13090725810517 406.51044461042005 M151.03683777720917 407.3424765756758 L152.74777241618622 409.80341467172224 L149.64230366618622 410.3776338985594 L148.88644524486054 409.2643514564665 L147.29855366618622 408.8776317527922 L145.43527432353486 409.2409137180479 L145.06027527720917 409.9088827064665 L145.3884012308835 410.50653967172224 L148.4645731058835 411.4323225906523 L152.13839836986054 412.8971651485594 L153.16964932353486 415.34638437539655 L151.73996277720917 418.2877913406523 L147.50949211986054 419.5182588985594 L143.4841043558835 418.4870079448851 L141.54465027720917 415.6862286022337 L144.84933682353486 415.1823213985594 L145.70480652720917 416.6413048198851 L147.50949211986054 417.139352886978 L149.4313699808835 416.6706016948851 L149.86496277720917 415.7916942527922 L149.63058777720917 415.17060312539655 L148.52902241618622 414.7370079448851 L143.47824402720917 413.1315401485594 L142.00167961986054 410.33075842172224 L143.2790262308835 407.61200818330366 L147.23995991618622 406.51044461042005 M137.16971226603974 406.90302285462934 L138.5349471178769 407.9049775293501 L139.1794759836911 409.28778859883863 L139.361122330737 411.50263222962934 L139.361122330737 419.23700842172224 L136.06815167338837 419.23700842172224 L136.06815167338837 412.88544687539655 L135.85721083552826 410.27802380830366 L135.1716668215512 409.3581012180479 L134.02908631236542 409.02997586042005 L132.49393292338837 409.4987264564665 L131.5622908678769 410.74091586381513 L131.31033726603974 413.6002913406523 L131.31033726603974 419.23700842172224 L128.0173689928769 419.23700842172224 L128.0173689928769 406.79169449121076 L131.07596226603974 406.79169449121076 L131.07596226603974 408.6198190143736 L135.17752238185395 406.51044461042005 M201.60783596904267 406.1998996427687 L200.2953321543454 410.635446636978 L201.6429884043454 415.059274761978 L205.06486721904267 416.5651324680479 L208.4691602793454 415.0709930351408 L209.79924031169404 410.588568775955 L208.5043222513913 406.182321636978 L205.06486721904267 404.7291949680479 M234.19383831889618 406.79169449121076 L236.44383259685029 406.79169449121076 L236.44383259685029 409.4166949680479 L234.19383831889618 409.4166949680479 L234.19383831889618 414.43232092172224 L234.25828762919892 416.2077108314665 L234.55125637919892 416.6237262180479 L235.10789700419892 416.7877891948851 L236.43211193950165 416.4713827064665 L236.71336956889618 419.0260711601408 L234.11180325419892 419.5182588985594 L232.50633068950165 419.2194298198851 L231.45750828654755 418.44599160462934 L230.99461384685029 417.16278943330366 L230.88914700419892 414.84247717172224 L230.88914700419892 409.4166949680479 L229.37743016154755 409.4166949680479 L229.37743016154755 406.79169449121076 L230.88914700419892 406.79169449121076 L230.88914700419892 404.3190384200247 L234.19383831889618 402.3971638372572 M270.1588708964108 402.05731961042005 L270.1588708964108 419.23700842172224 L267.10028477580533 419.23700842172224 L267.10028477580533 417.4088838985594 L265.30144520671354 418.9967742851408 L263.20965596110807 419.5182588985594 L259.5358163920163 417.7897432735594 L258.00652333171354 412.96747836381513 L259.4948083964108 408.156928150955 L263.2565195170163 406.51044461042005 L266.86590977580533 408.244818775955 L266.86590977580533 402.05731961042005 M255.36577053935517 402.05731961042005 L255.36577053935517 405.1041952064665 L252.0728094187497 405.1041952064665 L252.0728094187497 402.05731961042005 M174.13487263591279 402.05731961042005 L174.13487263591279 419.23700842172224 L171.07627697856415 419.23700842172224 L171.07627697856415 417.4088838985594 L169.27744694621552 418.9967742851408 L167.18565293223847 419.5182588985594 L163.51182289988984 417.7897432735594 L161.98252507121552 412.96747836381513 L163.47081013591279 408.156928150955 L167.23252602488984 406.51044461042005 L170.84190197856415 408.244818775955 L170.84190197856415 402.05731961042005 M159.3417770472287 402.05731961042005 L159.3417770472287 405.1041952064665 L156.04880638988007 405.1041952064665 L156.04880638988007 402.05731961042005 M124.75552626521576 402.05731961042005 L124.75552626521576 419.23700842172224 L121.28677674205292 419.23700842172224 L121.28677674205292 402.05731961042005 M211.1058790293454 404.1198194316061 L213.38517971904267 410.6706026485594 L211.12345524699677 417.1803680351408 L205.0765878763913 419.52997717172224 L198.9828378763913 417.19208630830366 L196.7211134043454 410.752634136978 L197.50627346904267 406.34638461381513 L199.10588093669404 403.9909127643736 L201.3265878763913 402.4440387180479 L205.02970524699677 401.7643504133852 M195.69756337077607 401.7643504133852 L191.3967783060788 419.52997717172224 L188.9710027781247 419.52997717172224 L193.22490521342743 401.7643504133852 M107.3493386116742 401.7643504133852 L111.63840123088349 411.12763199121076 L108.31027754218567 411.12763199121076 L105.98996528060425 405.39716455251295 L103.68137129218567 411.12763199121076 L100.32980748088349 411.12763199121076 L104.73605700404633 401.7643504133852 M185.86094807370017 255.45233986112407 L249.34806886049523 275.9320562439612 L263.1718774189102 339.9311699403271 L226.82038083937437 382.93857434428503 L137.22162166446202 378.3306381581467 L116.22991237205405 301.53170172250753 M179.717033158849 285.65992152580884 L148.48546567502245 306.6516308182168 L155.65336640901546 350.6830210413166 L215.04454391924304 359.8988934135933 L241.15618230736033 332.2512762967632 L225.28440211066155 294.3638009885146 M177.15706861099443 302.0436946320785 L185.34895516412922 309.72358827564244 L180.7410189779909 320.47543937663187 L166.91721041957584 324.05938974362834 L163.84525296215028 310.2355811852134 M217.60450846709767 312.283552823497 L219.65248010538141 322.01141810534466 L202.24472117996984 322.01141810534466 L197.63678499383147 311.25956700435523 L203.26870699911169 304.6036591799332 M202.24472117996984 333.2752621159051 L209.41262191396282 341.46714866903994 L198.66077081297334 349.65903522217474 L183.30098352584548 341.97914157861084 L188.9329055311257 333.78725502547604 M205.3166786373954 312.283552823497 L205.3166786373954 316.8914890096354 L211.97258646181746 316.8914890096354 L210.43660773310467 311.7715599139261 M174.59710406313974 312.283552823497 L171.01315369614326 315.35551028092266 L171.01315369614326 317.40348191920634 L177.15706861099443 317.40348191920634 L178.6930473397072 314.33152446178076 M823.692241348665 384.67476810213907 L822.813335098665 387.51070703265054 L823.692241348665 390.34664238688333 L825.860210098665 391.3310166716276 L828.0223232883623 390.34664238688333 L828.8953644413164 387.48726810213907 L828.0223232883623 384.67476810213907 L825.860210098665 383.6903938173948 M916.1769825596026 384.5400031923948 L915.3801113742999 387.2997685789762 L916.2121349949053 390.3993770003019 L918.2394749302081 391.40132988688333 L920.1496464389971 390.4814084887205 L920.9113651889971 387.4638291716276 L920.1262051242999 384.5575782179533 L918.1808811802081 383.60835994479044 M867.6080662388017 384.45796931979044 L866.8170506138017 387.24117363688333 L867.3678261417558 390.1239856600462 L869.5943886417558 391.41305054423196 L871.5279823917558 390.4462512850462 L872.3248631138017 387.5575813173948 L871.5514237064531 384.46968997713907 L869.5709568638017 383.52632964846475 M799.6043497699907 384.4462510466276 L798.8367706913164 387.2528907179533 L799.6043497699907 390.1532825350462 L801.4969307560136 391.073203933209 L803.535991348665 390.1298471808134 L804.3680245060136 387.33492459055765 L803.5711485523393 384.46382964846475 L801.5555245060136 383.52632964846475 M908.8370091098955 381.2880500673948 L908.8370091098955 393.7333604216276 L905.54404798929 393.7333604216276 L905.54404798929 381.2880500673948 M838.086715378206 381.2880500673948 L838.086715378206 387.00679863688333 L838.2683521885087 390.2235957503019 L838.9304596561601 391.1610957503019 L840.1492077488115 391.5067991137205 L841.660934128206 391.0439082503019 L842.5749928135087 389.8954721808134 L842.8210884708574 386.53804744479044 L842.8210884708574 381.2880500673948 L846.114059128206 381.2880500673948 L846.114059128206 393.7333604216276 L843.0554634708574 393.7333604216276 L843.0554634708574 391.87007869479044 L841.2683540958574 393.4403940558134 L838.9304596561601 394.01461209055765 L836.680465378206 393.4638294100462 L835.2390534061601 391.9169553637205 L834.7937447208574 389.1630503058134 L834.7937447208574 381.2880500673948 M772.8050238269975 381.2880500673948 L772.8050238269975 393.7333604216276 L769.5120531696489 393.7333604216276 L769.5120531696489 381.2880500673948 M922.7511936802081 382.7060165524183 L924.2629200596026 387.4403938173948 L922.7394825596026 392.28609527346475 L919.0480763096026 394.01461209055765 L917.1789318699053 393.60445584055765 L915.4152638096026 392.19820703265054 L915.4152638096026 398.46773709055765 L912.1223026889971 398.46773709055765 L912.1223026889971 381.2880500673948 L915.1925999302081 381.2880500673948 L915.1925999302081 383.1161728024183 L916.8098026889971 381.59273709055765 L919.0715176242999 381.00679839846475 M894.4518810886552 381.98531533476694 L896.3796192783525 384.9677344679533 L893.1335217136552 385.5536731600462 L892.3893887180498 384.0888294100462 L890.883517898958 383.59664226767404 L888.920627273958 384.4462510466276 L888.188205398958 387.2880503058134 L888.9323479313066 390.41695560213907 L890.9303909916093 391.3310166716276 L892.465549148958 390.79781616923196 L893.3093029636552 388.9638301253019 L896.5436703342607 389.5146116137205 L894.6100765842607 392.87789429423196 L890.7780510563066 394.01461209055765 L886.4245373386552 392.29195560213907 L884.8014885563066 387.5224241137205 L886.430392898958 382.723594558209 L890.8366448063066 381.00679839846475 M858.6569649357011 381.39937664267404 L860.0221974033525 382.40132952925546 L860.6667286533525 383.78414238688333 L860.8483654636552 385.9989866137205 L860.8483654636552 393.7333604216276 L857.5554043430498 393.7333604216276 L857.5554043430498 387.3817988753019 L857.3444611210039 384.7743770003019 L856.6589123386552 383.8544550060926 L855.5163342136552 383.52632964846475 L853.9811855930498 383.99508084055765 L853.0495411533525 385.2372678637205 L852.7975899357011 388.09664214846475 L852.7975899357011 393.7333604216276 L849.5046192783525 393.7333604216276 L849.5046192783525 381.2880500673948 L852.5632149357011 381.2880500673948 L852.5632149357011 383.1161728024183 L856.6647774357011 381.00679839846475 M830.4773956913164 382.840782058209 L832.2820812839677 387.47554744479044 L830.459819473665 392.1571906923948 L825.8719307560136 394.01461209055765 L822.608256973665 393.2411738753019 L820.2469307560136 390.9735950350462 L819.4383389133623 387.33492459055765 L820.2469307560136 384.1591426253019 L822.5379425663164 381.8153938173948 L825.8484894413164 381.00679839846475 M818.7859303135087 381.6278907179533 L817.7663952488115 384.4989856600462 L816.2195259708574 383.9599242329298 L815.0476509708574 384.34078181979044 L814.2917877811601 385.7177373289762 L814.0163952488115 389.88961185213907 L814.0163952488115 393.7333604216276 L810.7234293598344 393.7333604216276 L810.7234293598344 381.2880500673948 L813.7820202488115 381.2880500673948 L813.7820202488115 383.05758084055765 L815.1941353458574 381.40523697134836 L816.6179615635087 381.00679839846475 M804.5203644413164 383.0341425060926 L804.5203644413164 381.2880500673948 L807.6023966449907 381.2880500673948 L807.6023966449907 392.45601738688333 L807.2391182560136 395.7489856600462 L806.2195831913164 397.4599250673948 L804.4676310199907 398.43257988688333 L801.6961485523393 398.78414238688333 L797.207866348665 397.70015801188333 L795.8836466449907 394.95211209055765 L795.8953673023393 394.5536741137205 L799.6570831913164 395.01070822474344 L800.0906807560136 395.91304863688333 L801.5672403949907 396.26461113688333 L803.5008341449907 395.8778938173948 L804.1570860523393 395.0458606600462 L804.3094307560136 393.5341426253019 L804.3094307560136 391.7177375673948 L800.5828673023393 393.7333604216276 L796.6102081913164 391.61226834055765 L795.461769737642 387.4403938173948 L796.9676310199907 382.65914226767404 L800.7117706913164 381.00679839846475 M785.1078850406816 381.98531533476694 L787.0356184620073 384.9677344679533 L783.7895256656816 385.5536731600462 L783.045383133333 384.0888294100462 L781.5395218509843 383.59664226767404 L779.5766312259843 384.4462510466276 L778.8442093509843 387.2880503058134 L779.588351883333 390.41695560213907 L781.5863997120073 391.3310166716276 L783.1215531009843 390.79781616923196 L783.9653069156816 388.9638301253019 L787.1996790546586 389.5146116137205 L785.2660853046586 392.87789429423196 L781.434055008333 394.01461209055765 L777.0805412906816 392.29195560213907 L775.457492508333 387.5224241137205 L777.0863968509843 382.723594558209 L781.492648758333 381.00679839846475 M756.9962412494829 384.3349250673948 L758.8946801799943 384.3349250673948 L761.6368657726457 384.06539107558115 L762.7208525318315 383.22164202925546 L763.1134277958085 381.88570345637186 L762.5626474994829 380.3388294100462 L761.1681157726457 379.5771112560926 L758.6720234531572 379.45992435213907 L756.9962412494829 379.45992435213907 M744.0080219883134 382.06148589846475 L735.7931784171274 385.20211185213907 L744.0080219883134 388.4599253058134 L744.0080219883134 391.7763301253019 L732.2306783128192 386.6552373289762 L732.2306783128192 383.8192989945112 L744.0080219883134 378.72164214846475 M908.8370091098955 376.5536726534067 L908.8370091098955 379.60054720637186 L905.54404798929 379.60054720637186 L905.54404798929 376.5536726534067 M902.165027298372 376.5536726534067 L902.165027298372 393.7333604216276 L898.8720661777666 393.7333604216276 L898.8720661777666 376.5536726534067 M875.6061131138017 376.5536726534067 L875.6061131138017 393.7333604216276 L872.5475174564531 393.7333604216276 L872.5475174564531 391.90523828265054 L870.7486874241044 393.49312866923196 L868.6568886417558 394.01461209055765 L864.9830681461503 392.28609527346475 L863.4537655491044 387.4638291716276 L864.9420506138017 382.6532819389997 L868.7037712711503 381.00679839846475 L872.3131424564531 382.7411731600462 L872.3131424564531 376.5536726534067 M772.8050238269975 376.5536726534067 L772.8050238269975 379.60054720637186 L769.5120531696489 379.60054720637186 L769.5120531696489 376.5536726534067 M759.09389797632 376.5536726534067 L763.2188994068315 376.8114855408369 L765.6915527958085 378.4931253909765 L766.6876465458085 381.8388291716276 L766.113432087343 384.4989856600462 L764.6544486660173 386.19234646555765 L762.8556138652971 387.00679863688333 L759.2579609531572 387.2528907179533 L756.9962412494829 387.2528907179533 L756.9962412494829 393.7333604216276 L753.52749172632 393.7333604216276 L753.52749172632 376.5536726534067 M834.6482147836208 468.8447544902509 L833.8513435983181 471.60451987683234 L834.6833672189235 474.7041294902509 L836.7107166909694 475.70608356892524 L838.6208691262722 474.7861609786695 L839.3825878762722 471.7685840457624 L838.5974373483181 468.8623330920881 L836.6521229409694 467.9131130307859 M819.984213318777 468.8447544902509 L819.1873421334743 471.60451987683234 L820.0193657540798 474.7041294902509 L822.0467152261257 475.70608356892524 L823.9568676614284 474.7861609786695 L824.7185864114284 471.7685840457624 L823.9334358834743 468.8623330920881 L821.9881214761257 467.9131130307859 M862.1112789773464 468.76272300183234 L861.3202633523464 471.54592612683234 L861.8710484170437 474.4287393420881 L864.0976109170437 475.717803034181 L866.0312046670437 474.7510037749952 L866.8280758523464 471.862331423158 L866.0546459817409 468.7744424670881 L864.0741696023464 467.8310815423673 M848.5153450631618 468.61623743473945 L847.8239311837673 470.7490513652509 L852.7458061837673 470.7490513652509 L852.0075287484646 468.5752234786695 L850.2965893411159 467.8310815423673 M812.64423986907 465.5928007692045 L812.64423986907 478.0381141036695 L809.3512787484646 478.0381141036695 L809.3512787484646 465.5928007692045 M763.2299294137478 465.5928007692045 L763.2299294137478 471.31154993473945 L763.4115709924221 474.5283494323438 L764.073683228445 475.465847048158 L765.2924313210964 475.8115527957624 L766.8041481637478 475.3486619323438 L767.7182116174221 474.2002246707624 L767.9643072747707 470.84280231892524 L767.9643072747707 465.5928007692045 L771.2572731637478 465.5928007692045 L771.2572731637478 478.0381141036695 L768.1986822747707 478.0381141036695 L768.1986822747707 476.17483118473945 L766.4115728997707 477.7451453536695 L764.073683228445 478.31936458050666 L761.8236794137478 477.7685830920881 L760.3822722100734 476.2217078536695 L759.9369635247707 473.4678027957624 L759.9369635247707 465.5928007692045 M736.6122450494289 465.5928007692045 L736.6122450494289 478.0381141036695 L733.3192743920803 478.0381141036695 L733.3192743920803 465.5928007692045 M854.4801869058132 467.1455357402509 L856.0153355264187 472.7646754115766 L847.7653374337673 472.7646754115766 L848.5622181558132 475.0439737170881 L850.4606499337673 475.85842588841376 L851.7614330911159 475.4365525573438 L852.5583138131618 474.0771768420881 L855.8395542764187 474.62795833050666 L853.8415112161159 477.37600425183234 L850.4254974984646 478.31936458050666 L845.6208099984646 476.1982701152509 L844.3903412484646 471.9092080920881 L846.0075249337673 467.0635048478788 L850.0973763131618 465.3115502923673 M841.2224354409694 467.0107690423673 L842.7341522836208 471.7451463073438 L841.2107147836208 476.59084895550666 L837.5193085336208 478.31936458050666 L835.6501640939235 477.90920713841376 L833.8864960336208 476.50295833050666 L833.8864960336208 482.77248958050666 L830.5935253762722 482.77248958050666 L830.5935253762722 465.5928007692045 L833.6638416909694 465.5928007692045 L833.6638416909694 467.4209264844602 L835.2810253762722 465.89748958050666 L837.5427498483181 465.3115502923673 M826.5584339761257 467.0107690423673 L828.070150818777 471.7451463073438 L826.546713318777 476.59084895550666 L822.855307068777 478.31936458050666 L820.9861626290798 477.90920713841376 L819.222494568777 476.50295833050666 L819.222494568777 482.77248958050666 L815.9295239114284 482.77248958050666 L815.9295239114284 465.5928007692045 L818.9998402261257 465.5928007692045 L818.9998402261257 467.4209264844602 L820.6170239114284 465.89748958050666 L822.8787483834743 465.3115502923673 M798.2591023110866 466.2900684207624 L800.1868405007839 469.2724881499952 L796.9407429360866 469.8584244579023 L796.196600403738 468.39358249604163 L794.6907391213894 467.9013965457624 L792.7278484963894 468.7510047286695 L791.9954266213894 471.5928027957624 L792.739569153738 474.7217080920881 L794.7376122140407 475.6357715457624 L796.2727703713894 475.102568659181 L797.1165241860866 473.2685826152509 L800.3509010934353 473.8193652957624 L798.4173073434353 477.1826443999952 L794.585272278738 478.31936458050666 L790.2317585610866 476.5967080920881 L788.608709778738 471.8271766036695 L790.2376141213894 467.0283476442045 L794.643866028738 465.3115502923673 M783.8001789712429 465.7041297286695 L785.1654209756374 466.70608321129737 L785.8099522256374 468.0888942807859 L785.9915890359401 470.3037391036695 L785.9915890359401 478.0381141036695 L782.6986183785915 478.0381141036695 L782.6986183785915 471.686550173158 L782.4876846932888 469.079128298158 L781.8021359109401 468.1592086881345 L780.6595577859401 467.8310815423673 L779.1243996285915 468.29983213841376 L778.1927647256374 469.5420191615766 L777.9408039712429 472.40139702259955 L777.9408039712429 478.0381141036695 L774.6478380822658 478.0381141036695 L774.6478380822658 465.5928007692045 L777.7064289712429 465.5928007692045 L777.7064289712429 467.4209264844602 L781.8079914712429 465.3115502923673 M748.915106263113 466.2900684207624 L750.8428396844387 469.2724881499952 L747.596746888113 469.8584244579023 L746.8526043557644 468.39358249604163 L745.3467430734157 467.9013965457624 L743.3838524484157 468.7510047286695 L742.6514305734157 471.5928027957624 L743.3955731057644 474.7217080920881 L745.3936209344387 475.6357715457624 L746.9287743234157 475.102568659181 L747.772528138113 473.2685826152509 L751.00690027709 473.8193652957624 L749.07330652709 477.1826443999952 L745.2412762307644 478.31936458050666 L740.887762513113 476.5967080920881 L739.2647137307644 471.8271766036695 L740.8936180734157 467.0283476442045 L745.2998699807644 465.3115502923673 M720.8034624719143 468.639675173158 L722.7018990182399 468.639675173158 L725.4440869950771 468.3701441615766 L726.5280737542629 467.52639571129737 L726.9206490182399 466.19045594632087 L726.3698663377285 464.6435830920881 L724.9753369950771 463.8818631499952 L722.4792446755886 463.76467505394874 L720.8034624719143 463.76467505394874 M707.8152432107448 466.36623719632087 L699.6003987454891 469.5068619579023 L707.8152432107448 472.7646754115766 L707.8152432107448 476.081081423158 L696.0378995352506 470.95998743473945 L696.0378995352506 468.1240514844602 L707.8152432107448 463.02639583050666 M870.1093258523464 460.8584266334718 L870.1093258523464 478.0381141036695 L867.0507397317409 478.0381141036695 L867.0507397317409 476.20998838841376 L865.2519192361354 477.797881159181 L863.1601109170437 478.31936458050666 L859.4862904214382 476.59084895550666 L857.9569973611354 471.7685840457624 L859.4452633523464 466.95803562104163 L863.2069935464382 465.3115502923673 L866.8163647317409 467.04592624604163 L866.8163647317409 460.8584266334718 M812.64423986907 460.8584266334718 L812.64423986907 463.9053014844602 L809.3512787484646 463.9053014844602 L809.3512787484646 460.8584266334718 M805.9722389840603 460.8584266334718 L805.9722389840603 478.0381141036695 L802.6792778634548 478.0381141036695 L802.6792778634548 460.8584266334718 M736.6122450494289 460.8584266334718 L736.6122450494289 463.9053014844602 L733.3192743920803 463.9053014844602 L733.3192743920803 460.8584266334718 M722.9011191987514 460.8584266334718 L727.0261206292629 461.11623862683234 L729.4987740182399 462.7978787749952 L730.4948677682399 466.14358225762305 L729.9206509255886 468.8037381499952 L728.4616675042629 470.49709895550666 L726.6628374719143 471.31154993473945 L723.0651821755886 471.5576455920881 L720.8034624719143 471.5576455920881 L720.8034624719143 478.0381141036695 L717.3347129487514 478.0381141036695 L717.3347129487514 460.8584266334718 M809.5078023034994 546.9953522071573 L808.7109311181966 549.7551175937388 L809.5429547388021 552.8547260150644 L811.570304210848 553.8566800937388 L813.4804566461507 552.9367586955759 L814.2421753961507 549.919179378483 L813.4570248681966 547.0129296169016 L811.511710460848 546.0637113437388 M802.1678288537923 543.7434002742502 L802.1678288537923 556.1887130126688 L798.8748677331869 556.1887130126688 L798.8748677331869 543.7434002742502 M760.7881672937337 543.7434002742502 L763.7647374231283 552.5793370589945 L766.670983608431 543.7434002742502 L770.0811417657796 543.7434002742502 L765.6866105157796 555.7199630126688 L764.9014504510824 557.8879305705759 L764.0752823907796 559.5519921169016 L763.1729348260824 560.4836341724131 L761.9190342981283 561.0402747974131 L760.2373917657796 561.2394925937388 L758.3741124231283 561.0402747974131 L758.0811436731283 558.4621497974131 L759.4756730157796 558.6144921169016 L761.1748917657796 557.9406639919016 L762.0186360437337 556.2238666400644 L757.2842629510824 543.7434002742502 M708.7598307687704 543.7434002742502 L708.7598307687704 556.1887130126688 L705.4668601114217 556.1887130126688 L705.4668601114217 543.7434002742502 M816.082022960848 545.1613667592737 L817.5937398034994 549.8957428321573 L816.0703023034994 554.741447864506 L812.3788960534994 556.4699622974131 L810.5097516138021 556.059807239506 L808.7460835534994 554.6535560474131 L808.7460835534994 560.9230872974131 L805.4531128961507 560.9230872974131 L805.4531128961507 543.7434002742502 L808.523429210848 543.7434002742502 L808.523429210848 545.5715236053202 L810.1406128961507 544.0480861053202 L812.4023373681966 543.4621492013666 M787.782691295809 544.440663753483 L789.7104294855062 547.4230870589945 L786.464331920809 548.0090233669016 L785.7201893884603 546.544181405041 L784.2143281061117 546.0519936666224 L782.2514374811117 546.9016024455759 L781.5190156061117 549.7433993205759 L782.2631581384603 552.8723058089945 L784.261201198763 553.786366878483 L785.7963593561117 553.2531663760874 L786.640113170809 551.4191803321573 L789.8744900781576 551.969960628483 L787.9408963281576 555.3332445010874 L784.1088612634603 556.4699622974131 L779.755347545809 554.7473046169016 L778.1322987634603 549.9777755126688 L779.7612031061117 545.1789459571573 L784.1674550134603 543.4621492013666 M740.4868920404379 544.2941805705759 L742.1978314477865 546.755116878483 L739.0923626977865 547.3293372974131 L738.3364995080892 546.2160560474131 L736.7486126977865 545.8293357476923 L734.8853285867635 546.1926171169016 L734.5103295404379 546.8605861053202 L734.8384554941122 547.4582430705759 L737.9146273691122 548.3840247974131 L741.5884526330892 549.8488685474131 L742.6197035867635 552.2980853900644 L741.1900170404379 555.2394923553202 L736.9595463830892 556.4699622974131 L732.9341586191122 555.4387113437388 L730.9947045404379 552.6379308089945 L734.2993910867635 552.134025989506 L735.1548607904379 553.5930082187388 L736.9595463830892 554.0910550937388 L738.8814242441122 553.6223050937388 L739.3150170404379 552.7434000358317 L739.0806420404379 552.1223065242502 L737.9790814477865 551.6887125358317 L732.9282982904379 550.083244739506 L731.4517338830892 547.282460628483 L732.7290804941122 544.5637121782038 L736.6900189477865 543.4621492013666 M721.0626919824545 544.440663753483 L722.9904254037801 547.4230870589945 L719.7443326074545 548.0090233669016 L719.0001900751058 546.544181405041 L717.4943287927572 546.0519936666224 L715.5314381677572 546.9016024455759 L714.7990162927572 549.7433993205759 L715.5431588251058 552.8723058089945 L717.5412066537801 553.786366878483 L719.0763600427572 553.2531663760874 L719.9201138574545 551.4191803321573 L723.1544859964315 551.969960628483 L721.2208922464315 555.3332445010874 L717.3888619501058 556.4699622974131 L713.0353482324545 554.7473046169016 L711.4122994501058 549.9777755126688 L713.0412037927572 545.1789459571573 L717.4474557001058 543.4621492013666 M692.9510481912557 546.7902740821573 L694.8494847375814 546.7902740821573 L697.5916727144186 546.520741878483 L698.6756594736044 545.6769928321573 L699.0682347375814 544.3410542592737 L698.5174544412557 542.7941796169016 L697.1229227144186 542.0324608669016 L694.62683039493 541.9152745589945 L692.9510481912557 541.9152745589945 M679.9628289300863 544.5168367013666 L671.747985060877 547.6574620589945 L679.9628289300863 550.915273128483 L679.9628289300863 554.2316815242502 L668.1854852545921 549.1105863437388 L668.1854852545921 546.2746497974131 L679.9628289300863 541.1769923553202 M802.1678288537923 539.0090242013666 L802.1678288537923 542.0558974132273 L798.8748677331869 542.0558974132273 L798.8748677331869 539.0090242013666 M795.4958279687826 539.0090242013666 L795.4958279687826 556.1887130126688 L792.2028668481771 556.1887130126688 L792.2028668481771 539.0090242013666 M748.6746438104574 539.0090242013666 L748.6746438104574 548.1262096748087 L752.5301106531087 543.7434002742502 L756.5848000604574 543.7434002742502 L752.3308976251546 548.2902750358317 L756.889489467806 556.1887130126688 L753.3387024957601 556.1887130126688 L750.209801967806 550.5988678321573 L748.6746438104574 552.2043368205759 L748.6746438104574 556.1887130126688 L745.3816731531087 556.1887130126688 L745.3816731531087 539.0090242013666 M708.7598307687704 539.0090242013666 L708.7598307687704 542.0558974132273 L705.4668601114217 542.0558974132273 L705.4668601114217 539.0090242013666 M695.0487049180929 539.0090242013666 L699.1737063486044 539.2668363437388 L701.6463597375814 540.9484767899248 L702.6424534875814 544.2941805705759 L702.06823664493 546.9543358669016 L700.6092532236044 548.6476966724131 L698.8104231912557 549.4621488437388 L695.21276789493 549.7082409248087 L692.9510481912557 549.7082409248087 L692.9510481912557 556.1887130126688 L689.4822986680929 556.1887130126688 L689.4822986680929 539.0090242013666 M324.18125953582575 290.76894773444207 L324.931028121729 306.69845159496265 L340.96270598381983 305.9178091501138 L340.10196742513676 289.82380303603196 M366.93245191449364 321.4728294196101 L366.93245191449364 322.12907894277294 L366.803543757145 323.7345491232844 L366.0183884608193 324.82439144277294 L364.3191697108193 325.41032894277294 L363.00667066449364 324.9064229311915 L362.4910428034707 323.71110900068004 L363.1355740534707 322.5509546580287 L364.928543757145 321.9767354311915 M378.7881733881875 317.2423605504008 L380.76864023083886 318.1857190909358 L381.5420796381875 321.2736092390986 L380.74520368451317 324.1622827830287 L378.81160993451317 325.1290796580287 L376.58504743451317 323.8400171580287 L376.0342671381875 320.95720394277294 L376.8252827631875 318.17400081777294 M394.6749522196694 315.00407858514507 L394.6749522196694 322.8790794196101 L395.12026090497216 325.632986861703 L396.5616681086465 327.1798609080287 L398.81167192334374 327.73064239644725 L401.14955682629784 327.1564231696101 L402.93666620129784 325.58610900068004 L402.93666620129784 327.4493919196101 L405.9952618586465 327.4493919196101 L405.9952618586465 315.00407858514507 L402.70229120129784 315.00407858514507 L402.70229120129784 320.25407894277294 L402.45620508069237 323.6115012946101 L401.5421368586465 324.7599385561915 L400.0304200159951 325.2228294196101 L398.81167192334374 324.8771260561915 L398.1495596873208 323.9396260561915 L397.9679181086465 320.72282775068004 L397.9679181086465 315.00407858514507 M388.0732609736367 315.00407858514507 L388.0732609736367 327.4493919196101 L391.36623163098534 327.4493919196101 L391.36623163098534 315.00407858514507 M413.9444138514443 314.7228281083079 L409.9834801661416 315.82439108514507 L408.7061383234902 318.5431419196101 L410.1826931940957 321.34392364644725 L415.2334763514443 322.94939144277294 L416.3350369440957 323.3829854311915 L416.5694119440957 324.00408013486583 L416.1358239161416 324.88298519277294 L414.2139508234902 325.35173638486583 L412.4092556940957 324.85368831777294 L411.55379075879296 323.39470489644725 L408.2490994440957 323.8986109080287 L410.1885582911416 326.69939263486583 L414.2139508234902 327.73064239644725 L418.44442148083886 326.50017364644725 L419.87410325879296 323.5587666811915 L418.8428570734902 321.10954864644725 L415.1690270411416 319.64470489644725 L412.0928551661416 318.7189231696101 L411.7647244440957 318.12126739644725 L412.13972825879296 317.4532978119822 L414.0030076014443 317.09001644277294 L415.5909039484902 317.4767355504008 L416.3467576014443 318.59001620435436 L419.4522263514443 318.0157981696101 L417.74129648083886 315.55486007356365 M364.928543757145 314.7228281083079 L361.2722947108193 315.59001608514507 L359.537918757145 318.26189144277294 L362.526200007145 318.8009522738429 L363.3230759608193 317.58806331777294 L364.694168757145 317.2423605504008 L366.46370191449364 317.64665706777294 L366.93245191449364 319.00017364644725 L366.93245191449364 319.3282972159358 L363.7332322108193 320.13689144277294 L361.1140896784707 320.90447052144725 L359.70198173398217 322.1700940909358 L359.19807691449364 324.0509544196101 L360.3054978358193 326.6876719775172 L363.33479661816796 327.73064239644725 L365.38557786816796 327.32048614644725 L367.1902634608193 326.09001739644725 L367.3074509608193 326.4767359080287 L367.623856257145 327.4493919196101 L370.8816697108193 327.4493919196101 L370.289871882145 325.7794700446101 L370.13167161816796 323.35954769277294 L370.1668240534707 319.5157979311915 L369.7273709284707 316.56853182935436 L368.209793757145 315.2443127217265 M346.2411691653176 313.1759540619822 L348.94819993848046 313.1759540619822 L351.4794518458291 313.2345472159358 L352.78609056348046 313.90837474488933 L353.24898261899193 315.3087668004008 L352.89742011899193 316.5978281083079 L351.9247652995034 317.32439144277294 L348.8075758921548 317.5353293004008 L346.2411691653176 317.5353293004008 M388.0732609736367 310.26970385336597 L388.0732609736367 313.31657870435436 L391.36623163098534 313.31657870435436 L391.36623163098534 310.26970385336597 M381.53035898083886 310.26970385336597 L381.53035898083886 316.4572040619822 L377.92098302716454 314.7228281083079 L374.1592671381875 316.36931224488933 L372.6709820734902 321.1798606696101 L374.20027990216454 326.00212677144725 L377.87410993451317 327.73064239644725 L379.9659039484902 327.2091577830287 L381.76473398083886 325.62126739644725 L381.76473398083886 327.4493919196101 L384.8233296381875 327.4493919196101 L384.8233296381875 310.26970385336597 M342.7724196421548 310.26970385336597 L342.7724196421548 327.4493919196101 L346.2411691653176 327.4493919196101 L346.2411691653176 320.2775166811915 L346.9442941653176 320.2775166811915 L348.6903883921548 320.4708753409358 L349.73335761899193 321.1857198061915 L351.5614821421548 323.71110900068004 L354.06929511899193 327.4493919196101 L358.2177330958291 327.4493919196101 L356.12007636899193 324.09782989644725 L354.1454674708291 321.30876644277294 L352.28804368848046 319.8673604311915 L355.68648118848046 318.2794700446101 L356.82320136899193 315.08611126565654 L356.0732008921548 312.3790793004008 L354.07515306348046 310.7325951638194 L350.0732018458291 310.26970385336597 M326.104513596241 309.9767352523776 L321.6982628809853 319.3400166811915 L325.0498257982178 319.3400166811915 L327.3584188925667 313.6095468583079 L329.6787317501946 319.3400166811915 L333.00685663098534 319.3400166811915 L328.71779460782244 309.9767352523776 M526.3724653947181 348.10469111740053 L498.8187849372114 330.65662811014755 L484.9945504006956 330.65662811014755 L481.4609579431971 336.7403220840906 L462.17785262198015 336.6963422280428 L461.7752050141205 348.10469111740053 M587.3320436301088 389.00749772796644 L589.3125104727602 389.95085686454786 L590.0859498801088 393.0387482048036 L589.289069158063 395.92742055664075 L587.355475408063 396.89421623954786 L585.128912908063 395.60515612373365 L584.5781373801088 392.722341716385 L585.3691530051088 389.939138591385 M573.5544538321352 389.00749772796644 L575.2653932394838 389.7516390682222 L576.0036706747866 391.9254681468965 L571.0817956747866 391.9254681468965 L571.7732095541811 389.792654216385 M514.8744535269594 389.00749772796644 L516.5853881659365 389.7516390682222 L517.3236703696108 391.9254681468965 L512.4017953696108 391.9254681468965 L513.0931997122622 389.792654216385 M544.5388269247866 386.76921635875715 L544.5388269247866 394.6442160011293 L544.9841356100893 397.3981234432222 L546.4255428137636 398.94499987373365 L548.6755418600893 399.49578017005933 L551.0134362997866 398.9215609432222 L552.8005456747866 397.351247966385 L552.8005456747866 399.21453088531507 L555.8591413321352 399.21453088531507 L555.8591413321352 386.76921635875715 L552.5661706747866 386.76921635875715 L552.5661706747866 392.0192155242921 L552.320075017438 395.3766390682222 L551.4060115637636 396.5250775218965 L549.8942947211123 396.9879671932222 L548.6755418600893 396.6422638298036 L548.013434392438 395.7047650218965 L547.8317928137636 392.487966716385 L547.8317928137636 386.76921635875715 M521.8786096396303 386.76921635875715 L526.179389935956 392.8043720127107 L521.6911077322817 399.21453088531507 L525.5465793433046 399.21453088531507 L528.101267796979 395.3590592742921 L530.632514935956 399.21453088531507 L534.675483685956 399.21453088531507 L530.0700139822817 392.663747966385 L534.2887639822817 386.76921635875715 L530.4215764822817 386.76921635875715 L528.101267796979 390.19109338531507 L525.8981418433046 386.76921635875715 M573.3552408041811 386.48796647796644 L569.2653894247866 388.23991924533857 L567.6482057394838 393.08562248954786 L568.8786744894838 397.3746868968965 L573.6833619894838 399.49578017005933 L577.0993757071352 398.552419841385 L579.0974283041811 395.80437392005933 L575.8161783041811 395.25359243164075 L575.0192975821352 396.6129669548036 L573.7185144247866 397.03484147796644 L571.8200826468325 396.22039049873365 L571.0232019247866 393.9410921932222 L579.2732095541811 393.9410921932222 L577.7380513968325 388.32195192585004 M565.0270414175844 386.48796647796644 L563.6032151999331 386.88640505085004 L562.1911096396303 388.53874713192 L562.1911096396303 386.76921635875715 L559.1325139822817 386.76921635875715 L559.1325139822817 399.21453088531507 L562.4254846396303 399.21453088531507 L562.4254846396303 395.37078112373365 L562.700877171979 391.198904216385 L563.4567308249331 389.821951091385 L564.6286058249331 389.44109231243146 L566.1754846396303 389.98015373954786 L567.1950101675844 387.1090593935014 M514.6752309622622 386.48796647796644 L510.5853891196108 388.23991924533857 L508.9682006659365 393.08562248954786 L510.1986694159365 397.3746868968965 L515.0033569159365 399.49578017005933 L518.4193754019594 398.552419841385 L520.4174184622622 395.80437392005933 L517.1361684622622 395.25359243164075 L516.3392972769594 396.6129669548036 L515.0385141196108 397.03484147796644 L513.1400751890993 396.22039049873365 L512.3432016196108 393.9410921932222 L520.5931997122622 393.9410921932222 L519.0580463232851 388.32195192585004 M487.5691079916811 384.20281022796644 L475.7917643161869 389.3004670740129 L475.7917643161869 392.136404216385 L487.5691079916811 397.2574982048036 L487.5691079916811 393.9410921932222 L479.3542638244486 390.68327873954786 L487.5691079916811 387.54265397796644 M540.0741672339296 382.3746854067804 L536.769480687604 384.2965602875711 L536.769480687604 386.76921635875715 L535.2577638449526 386.76921635875715 L535.2577638449526 389.39421743164075 L536.769480687604 389.39421743164075 L536.769480687604 394.81999963531507 L536.8749475302553 397.1403107048036 L537.3378419699526 398.4235140682222 L538.3866691412783 399.196951091385 L539.992136937604 399.49578017005933 L542.5936984839296 399.00359243164075 L542.3124503912783 396.44890517005933 L540.988230687604 396.765310466385 L540.431590062604 396.60124868164075 L540.138621312604 396.18523210296644 L540.0741672339296 394.4098410011293 L540.0741672339296 389.39421743164075 L542.3241662802553 389.39421743164075 L542.3241662802553 386.76921635875715 L540.0741672339296 386.76921635875715 M590.0742292227602 382.03484088192 L590.0742292227602 388.22234123954786 L586.4648580374575 386.48796647796644 L582.7031373801088 388.1344500185014 L581.2148523154116 392.9449972511293 L582.7441549124575 397.76726454505933 L586.417975408063 399.49578017005933 L588.5097741904116 398.97429436454786 L590.3086042227602 397.38640517005933 L590.3086042227602 399.21453088531507 L593.3671998801088 399.21453088531507 L593.3671998801088 382.03484088192 M495.8581089796877 382.03484088192 L495.8581089796877 384.9410918355943 L500.9557652296877 384.9410918355943 L500.9557652296877 399.21453088531507 L504.42451475285054 399.21453088531507 L504.42451475285054 384.9410918355943 L509.5104527296877 384.9410918355943 L509.5104527296877 382.03484088192 M595.69384761052 350.3393510426898 L595.69384761052 350.99560056585267 L595.5649394531714 352.60106955427125 L594.7797841568457 353.69091306585267 L593.0805654068457 354.27685056585267 L591.76806636052 353.77294455427125 L591.2524384994971 352.57763181585267 L591.8969697494971 351.4174762811084 L593.6899394531714 350.84325705427125 M620.0498170395362 343.5893503274341 L616.0888785858618 344.6909139003177 L614.8115319748389 347.4096635426898 L616.2880963821875 350.210445269527 L621.3388795395362 351.81591306585267 L622.4404401321875 352.24950705427125 L622.6748151321875 352.87060056585267 L622.2412175674903 353.74950681585267 L620.3193444748389 354.21825681585267 L618.5146588821875 353.72020994085267 L617.6591891785132 352.261226519527 L614.3545026321875 352.7651325311084 L616.2939567108618 355.56591306585267 L620.3193444748389 356.597164019527 L624.5498151321875 355.3666964616199 L625.9794969101416 352.42528711217835 L624.9482507248389 349.976070269527 L621.2744206924903 348.511226519527 L618.1982535858618 347.5854447926898 L617.8701276321875 346.987789019527 L618.2451266785132 346.3198200311084 L620.1084107895362 345.9565374698062 L621.6962975998389 346.34325717348054 L622.4521607895362 347.456539019527 L625.5576295395362 346.8823197926898 L623.8466901321875 344.4213828887363 M606.7058152695166 343.5893503274341 L602.7448815842139 344.6909139003177 L601.4675349731909 347.4096635426898 L602.9440993805396 350.210445269527 L607.9948777695166 351.81591306585267 L609.0964431305396 352.24950705427125 L609.3308181305396 352.87060056585267 L608.8972253342139 353.74950681585267 L606.9753474731909 354.21825681585267 L605.1706618805396 353.72020994085267 L604.3151921768653 352.261226519527 L601.0105056305396 352.7651325311084 L602.9499597092139 355.56591306585267 L606.9753474731909 356.597164019527 L611.2058181305396 355.3666964616199 L612.6355046768653 352.42528711217835 L611.6042537231909 349.976070269527 L607.9304284592139 348.511226519527 L604.8542565842139 347.5854447926898 L604.5261306305396 346.987789019527 L604.9011296768653 346.3198200311084 L606.7644090195166 345.9565374698062 L608.3523005981909 346.34325717348054 L609.1081590195166 347.456539019527 L612.2136277695166 346.8823197926898 L610.5026931305396 344.4213828887363 M593.6899394531714 343.5893503274341 L590.0336904068457 344.4565377082248 L588.2993144531713 347.12841306585267 L591.2875957031714 347.6674750890155 L592.0844716568457 346.4545855368991 L593.4555644531714 346.10888098138764 L595.22509761052 346.51317869085267 L595.69384761052 347.866695269527 L595.69384761052 348.1948188390155 L592.4946279068457 349.00341306585267 L589.8754853744971 349.770992144527 L588.4633798141942 351.0366169061084 L587.9594726105199 352.9174760426898 L589.0668935318457 355.5541947926898 L592.0961923141944 356.597164019527 L594.1469735641944 356.187007769527 L595.9516591568457 354.956539019527 L596.0688466568457 355.3432575311084 L596.3852519531714 356.3159135426898 L599.6430654068457 356.3159135426898 L599.0512675781714 354.6459916676898 L598.8930673141944 352.22606931585267 L598.9282197494971 348.38231955427125 L598.4887666244971 345.43505404848054 L596.9711894531714 344.11083494085267 M585.2445668716892 343.5893503274341 L583.820740654038 343.9877877082248 L582.4086303253637 345.64013098138764 L582.4086303253637 343.8706002082248 L579.3500346680149 343.8706002082248 L579.3500346680149 356.3159135426898 L582.6430053253637 356.3159135426898 L582.6430053253637 352.4721637811084 L582.9183930893406 348.30028806585267 L583.674256279038 346.9233337487598 L584.8461312790379 346.5424749698062 L586.3930053253636 347.0815363969226 L587.4125356216892 344.21044443506196 M551.3226277370915 341.30419377941087 L539.5452852536902 346.40185092348054 L539.5452852536902 349.23778806585267 L551.3226277370915 354.35888205427125 L551.3226277370915 351.0424760426898 L543.1077847619518 347.7846625890155 L551.3226277370915 344.6440378274341 M568.7756914635166 338.8432564284225 L564.6624106903538 339.6987247909923 L561.369442417191 342.8979447926898 L560.2444428940281 347.6674750890155 L561.252254917191 352.2436479176898 L564.2639727135166 355.47802244085267 L568.9631909866795 356.6088822926898 L573.1526441116795 355.806148394527 L576.310848667191 353.94872580427125 L576.310848667191 347.104976519527 L568.8342852135166 347.104976519527 L568.8342852135166 349.99950681585267 L572.8069419403538 349.99950681585267 L572.8069419403538 352.1791950311084 L570.9260816116795 353.21630392927125 L568.7405366440281 353.6440387811084 L565.178036167191 352.114742144527 L563.8186616440281 347.5268510426898 L565.1604575653538 343.2495078887363 L568.7756914635166 341.80810038703873 L571.2776441116795 342.54052136796906 L572.6428813477024 344.5385697926898 L576.0881919403538 343.8940391387363 L573.7737388153538 340.18505339282945 Z" />
<circle cx="476.8587218161447" cy="328.7909899030024" r="8" stroke="black" stroke-width="0" fill="green" />
<circle cx="498.3441785074366" cy="464.76200576201967" r="8" stroke="black" stroke-width="0" fill="white" />
<circle cx="332.5400564290314" cy="298.3048376492496" r="8" stroke="black" stroke-width="0" fill="red" />
<circle cx="18.000000000000007" cy="204.60469207996962" r="8" stroke="black" stroke-width="0" fill="red" />
<circle cx="340.0442203941273" cy="412.8767700367637" r="8" stroke="black" stroke-width="0" fill="black" />
<circle cx="488.6520193401594" cy="419.31625039100936" r="8" stroke="black" stroke-width="0" fill="black" />
<circle cx="601.8464599482108" cy="302.15631446062304" r="8" stroke="black" stroke-width="0" fill="black" />
<circle cx="506.075895218776" cy="461.89614183219845" r="8" stroke="black" stroke-width="0" fill="red" />
<circle cx="506.075895218776" cy="470.08802838533325" r="8" stroke="black" stroke-width="0" fill="black" />
<circle cx="547.0353279844504" cy="464.7633021257957" r="8" stroke="black" stroke-width="0" fill="white" />
<circle cx="547.0353279844504" cy="487.7005844745733" r="8" stroke="black" stroke-width="0" fill="white" />
<circle cx="565.057478401347" cy="476.2319433001845" r="8" stroke="black" stroke-width="0" fill="white" />
<circle cx="552.360054243988" cy="475.41275464487103" r="8" stroke="black" stroke-width="0" fill="black" />
<circle cx="304.1458916840018" cy="383.25403092210377" r="8" stroke="black" stroke-width="0" fill="red" />
<circle cx="307.42264630525574" cy="431.1765672579428" r="8" stroke="black" stroke-width="0" fill="black" />
<circle cx="309.88021227119617" cy="459.0289815386012" r="8" stroke="black" stroke-width="0" fill="white" />
</svg>