<?xml version="1.0" standalone="no"?><!DOCTYPE svg PUBLIC "-//W3C//DTD SVG 1.1//EN" "http://www.w3.org/Graphics/SVG/1.1/DTD/svg11.dtd">
<svg xmlns="http://www.w3.org/2000/svg" xmlns:xlink="http://www.w3.org/1999/xlink" width="900.8067031254973" height="577.6403684213888">
<defs>
        <g id="killer">
        <style type="text/css">
        	.st0 { fill: #231F20; }
        	.st1 { fill: #941A1D; }
        	.st2 { fill: #D91B21; }
        </style>
        	<polygon class="st0" points="20.1,6.6 23.5,7.9 28.8,2.8 24.5,3.7" />
        	<polygon class="st0" points="28.3,13 33.9,17.1 34.8,18.7 31.6,17.1 28.8,17.1" />
        	<polygon class="st0" points="26.7,24 26.6,28.9 26.6,32.6 25.6,28.6 24.1,26.3" />
        	<polygon class="st0" points="15.1,27.5 11.6,29.5 8.2,29.9 11.1,28.6 13.1,26.6" />
        	<polygon class="st0" points="7.4,19.5 7.4,16.8 3.9,16.8 0,15.3 3.4,18.3" />
        	<polygon class="st0" points="9.6,10.4 9.2,5.6 11.7,1.3 11.7,5.3 13.1,7.9" />

        	<circle class="st1" cx="18.1" cy="17.1" r="11" />

        	<polygon class="st0" points="26.1,13.8 31.8,22.9 32.1,26.4 30,23.2 26.6,21.2 23.8,24.1 20.8,31.8 18.1,35.2 19.4,31.6 19.1,25.5
        		7.3,25.6 2.9,24.5 8.3,23.8 10.5,21.7 7.6,15.1 4.6,11.4 3.6,7.3 7.1,10.9 9.5,12.1 10.9,12.1 13.1,8.8 15.4,3.9 19.5,0 18.9,2.8
        		18.1,7.1 18.1,8.6 29.8,8.7 35.1,9.8 26.6,11.6" />

        	<circle class="st2" cx="18.1" cy="17.1" r="5" />
        </g>
        <g id="apple">
        <style type="text/css">
        	.st1{fill:#CF0000;}
        	.st2{fill:#00AA00;}
        	.st3{fill:#3F1D00;}
        </style>

        	<path class="st1" d="M38.4,16.6c0.1-1.4-0.2-3.8-0.8-5.5c-0.6-1.4-2.8-3.8-4.1-4.6c-1.3-0.9-4.3-1.8-5.8-2.1
        		c-2.1-0.4-5.6-0.9-7.7-1c-1.8-0.1-6.2,0-7.9,0.2c-1.6,0.2-4.9,0.8-6.3,1.7C4.7,5.9,2.8,7.7,2.2,8.7c-0.7,1.1-1.8,3.5-2,4.8
        		c-0.4,2.8-0.2,4.3,0,5.7c0.2,1.7,0.5,4.4,1.4,6.7c1,2.8,2.4,4.8,3.6,6.1c1.3,1.4,4.3,3.7,6,4.5c1.8,0.8,5.7,1.8,7.7,1.8
        		c2.2,0,6.8-0.7,8.8-1.7c1.5-0.8,4.1-3.1,5.2-4.3C36.9,27.8,38.2,20.8,38.4,16.6z"/>

        	<path class="st2" d="M30.6,1.8c-0.4-0.3-2-1.3-3.8-0.8c-0.2,0.1-0.7,0.2-1.3,0.5c-0.9,0.6-1,1.3-2,2.8c-0.6,0.9-0.9,1.4-1.4,1.8
        		c-1,0.8-2.6,1.3-3.2,0.8c-0.7-0.7,0.2-2.8,1.1-4c0.5-0.6,1.4-1.7,2.9-2.4C26.7-1.1,30.4,1.6,30.6,1.8z"/>

        	<path class="st3" d="M18.4,7c-0.7-0.7-2.1-3.4-2.1-3.4c-0.1-0.2-0.1-0.5,0.1-0.6l0.5-0.3C17.3,2.5,17.8,2.6,18,3
        		c0,0,1.5,2.6,1.5,3.5c0,0-0.3,0.3-0.4,0.4C19,7,18.4,7,18.4,7z"/>
        </g></defs>
	<rect width="100%" height="100%" style="fill: #181048;" />
	<path fill-rule="evenodd" fill="#3078bc" d="M614.7621728901337 560.1318359981806 L284.5573947331369 567.6403684213888 L262.0317974635123 257.856523142663 L327.9589874521357 235.35936728373235 L382.39584752039514 240.99076660113852 L459.9840158935464 225.3479907194548 L508.16376560913227 240.99076660113852 L592.8622866557763 234.70521483777105 L612.0317974635122 303.5618701278735 L611.4060864282449 334.8474218912409 L646.4459044032164 344.23308742025114 L618.2889078161858 399.2956585237779 L667.094368567039 416.8155675112637 L632.6802616273347 473.1295606853251 L596.3890215818285 473.1295606853251 L580.1205346648774 524.4378655772477 L623.2945960983245 530.0692648946539 M419.746848031661 389.7356641704209 L413.11019521591004 387.1699386723783 L406.47354240015915 389.7356641704209 L403.7245515680209 395.9298717235557 L406.47354240015915 402.12407927669057 L413.11019521591004 404.6898047747331 L419.746848031661 402.12407927669057 L422.49583886379924 395.9298717235557 M396.1216510175199 378.68757499795834 L386.83033173468147 374.65571832632077 L377.539012451843 378.68757499795834 L373.69042150062273 388.4213393003475 L377.539012451843 398.1551036027367 L386.83033173468147 402.1869602743742 L396.1216510175199 398.1551036027367 L399.9702419687402 388.4213393003475 M703.5974999248305 47.12625530782777 L805.5676787881271 267.60380844423116 L719.2195559212328 299.515071242866 L649.7656310065571 317.0349802303518 L623.4857675253285 312.6550029834803 L632.8714330543387 280.11802914957815 L668.5369620645776 277.6151850085088 L708.5824683216879 211.28981527016973 L663.3178373657325 76.39908045997981 L518.5198426277042 43.59953469059217 L518.5198426277042 112.39858191418574 L597.7187458269573 132.39830494430012 L658.5179038385049 171.59776208332434 L613.7185242510487 191.59748511343878 L492.12020822795324 153.99800581682368 L451.3207732465198 89.99889212045761 L473.7204630402479 62.79926879950203 L495.32016391277153 10 L589.7188566149114 25.199789502886922 L633.7182472811633 47.59947929661507 L698.5173498987338 68.39919124793404 L702.5172945047566 109.998615150572 L714.5171283228252 112.39858191418574 M226.8135642260313 204.10126761574963 L225.9346579760313 206.937207738354 L226.8135642260313 209.7731442846797 L228.9815329760313 210.75751737733106 L231.14364616572857 209.7731442846797 L232.01669685542583 206.91376761574963 L231.14364616572857 204.10126761574963 L228.9815329760313 203.11689511914471 M190.81356041133404 204.10126761574963 L189.93465416133404 206.937207738354 L190.81356041133404 209.7731442846797 L192.98152916133404 210.75751737733106 L195.1436423510313 209.7731442846797 L196.01669304072857 206.91376761574963 L195.1436423510313 204.10126761574963 L192.98152916133404 203.11689511914471 M142.4614428728819 203.73798922677258 L141.77002899348736 205.87079838891248 L146.69190399348736 205.87079838891248 L145.95362655818462 203.69697288651685 L144.242687150836 202.95283095021466 M100.04138939082623 203.8844700254939 L99.25037376582623 206.6676755346797 L99.80114929378033 209.55048874993543 L102.02771179378033 210.83954886574963 L103.96130554378033 209.87275199074963 L104.75818626582623 206.98408083100537 L103.98474685847759 203.89618829865674 L102.00428001582623 202.95283095021466 M241.20803825557232 200.71454838891248 L241.20803825557232 206.4333005346797 L241.38967506587505 209.65009526391248 L242.05179207026958 210.58759526391248 L243.2705306261778 210.93329981942395 L244.78225700557232 210.47040895600537 L245.69631569087505 209.32197169442395 L245.94240181148052 205.9645493425868 L245.94240181148052 200.71454838891248 L249.23538200557232 200.71454838891248 L249.23538200557232 213.15986351151685 L246.17677681148052 213.15986351151685 L246.17677681148052 211.296578208401 L244.38966743648052 212.86689476151685 L242.05179207026958 213.4411116041682 L239.80178825557232 212.89033130784253 L238.36038582026958 211.34345606942395 L237.91505806148052 208.58954743523816 L237.91505806148052 200.71454838891248 M183.942336961627 200.71454838891248 L183.942336961627 213.15986351151685 L180.64937584102154 213.15986351151685 L180.64937584102154 200.71454838891248 M114.58233825862408 200.71454838891248 L114.58233825862408 213.15986351151685 L111.28937713801861 213.15986351151685 L111.28937713801861 200.71454838891248 M50.50403110682964 200.71454838891248 L50.50403110682964 206.4333005346797 L50.68567268550396 209.65009526391248 L51.34778015315533 210.58759526391248 L52.566533014178276 210.93329981942395 L54.07824985682964 210.47040895600537 L54.99231331050396 209.32197169442395 L55.23840896785259 205.9645493425868 L55.23840896785259 200.71454838891248 L58.53137485682964 200.71454838891248 L58.53137485682964 213.15986351151685 L55.47278396785259 213.15986351151685 L55.47278396785259 211.296578208401 L53.68567459285259 212.86689476151685 L51.34778015315533 213.4411116041682 L49.09778110682964 212.89033130784253 L47.65637628734112 211.34345606942395 L47.21106044948101 208.58954743523816 L47.21106044948101 200.71454838891248 M233.59872810542583 202.26728455205182 L235.40340416133404 206.9020493425868 L233.5811423510313 211.58369139809827 L228.99324409663677 213.4411116041682 L225.7295798510313 212.66767577309827 L223.36824409663677 210.40009812493543 L222.55966179072857 206.7614252962611 L223.36824409663677 203.58564273495892 L225.65927498042583 201.24189154286603 L228.96982185542583 200.43330089230756 M211.11427299678326 200.82587794442395 L212.4795150011778 201.82783023495892 L213.1240462511778 203.21064130444745 L213.30568306148052 205.42548731942395 L213.30568306148052 213.15986351151685 L210.01272194087505 213.15986351151685 L210.01272194087505 206.80829838891248 L209.80178825557232 204.20087889809827 L209.11622993648052 203.28095511574963 L207.97365181148052 202.95283095021466 L206.43850319087505 203.421582738354 L205.5068587511778 204.66376976151685 L205.25489799678326 207.5231428541682 L205.25489799678326 213.15986351151685 L201.9619368761778 213.15986351151685 L201.9619368761778 200.71454838891248 L205.02052299678326 200.71454838891248 L205.02052299678326 202.54267470021466 L209.12208549678326 200.43330089230756 M197.59872429072857 202.26728455205182 L199.40340034663677 206.9020493425868 L197.58113853633404 211.58369139809827 L192.9932402819395 213.4411116041682 L189.72957603633404 212.66767577309827 L187.3682402819395 210.40009812493543 L186.5596579760313 206.7614252962611 L187.3682402819395 203.58564273495892 L189.65927116572857 201.24189154286603 L192.96981804072857 200.43330089230756 M175.63739769160748 201.2653316654704 L177.34834663569927 203.72626976151685 L174.24287788569927 204.3004866041682 L173.487014696002 203.18720475812177 L171.89912788569927 202.80048505444745 L170.03583900630474 203.16376821179608 L169.66083519160748 203.831738988354 L169.9889563769102 204.42939237733106 L173.0651282519102 205.3551741041682 L176.738967821002 206.820020238354 L177.77021400630474 209.26923708100537 L176.34052269160748 212.210645238354 L172.110061571002 213.4411116041682 L168.08466903865337 212.4098606504939 L166.14521019160748 209.60908011574963 L169.44990150630474 209.105176488354 L170.30536644160748 210.5641587175868 L172.110061571002 211.0622044004939 L174.0319251269102 210.5934567846797 L174.46552269160748 209.7145481504939 L174.23114769160748 209.09345463891248 L173.12959663569927 208.6598618425868 L168.07880394160748 207.054395238354 L166.602249071002 204.25361351151685 L167.87959091365337 201.53486088891248 L171.84053413569927 200.43330089230756 M161.7702864855528 200.82587794442395 L163.13551895320415 201.82783023495892 L163.78005020320415 203.21064130444745 L163.96169655025005 205.42548731942395 L163.96169655025005 213.15986351151685 L160.66872589290142 213.15986351151685 L160.66872589290142 206.80829838891248 L160.45778267085552 204.20087889809827 L159.7722338885069 203.28095511574963 L158.6296557635069 202.95283095021466 L157.09450714290142 203.421582738354 L156.16286270320415 204.66376976151685 L155.9109114855528 207.5231428541682 L155.9109114855528 213.15986351151685 L152.61794082820415 213.15986351151685 L152.61794082820415 200.71454838891248 L155.6765364855528 200.71454838891248 L155.6765364855528 202.54267470021466 L159.7780989855528 200.43330089230756 M148.42628471553326 202.26728455205182 L149.9614428728819 207.88642601151685 L141.71143524348736 207.88642601151685 L142.50831596553326 210.16572074074963 L144.40674774348736 210.980176488354 L145.707530900836 210.55829838891248 L146.5044116228819 209.19892386574963 L149.7856616228819 209.749707738354 L147.787609025836 212.4977536596797 L144.37159530818462 213.4411116041682 L139.56690780818462 211.32001952309827 L138.33643905818462 207.03095392365674 L139.95362274348736 202.1852524675868 L144.0434741228819 200.43330089230756 M126.703567430377 200.9254856504939 L128.14496986567974 202.41376892705182 L129.91450302302837 200.9254856504939 L131.9418429583311 200.43330089230756 L134.262161180377 200.98993794102887 L135.68012230098248 202.62470618863324 L136.019973680377 205.2028317846797 L136.019973680377 213.15986351151685 L132.72700302302837 213.15986351151685 L132.72700302302837 206.04658083100537 L132.387161180377 203.6559565462611 L130.980911180377 202.95283095021466 L129.68012802302837 203.3747054733775 L128.80122177302837 204.61103634019116 L128.53168480098248 207.18329981942395 L128.53168480098248 213.15986351151685 L125.23871414363384 213.15986351151685 L125.23871414363384 206.33955077309827 L125.06293289363384 203.99579958100537 L124.51801292598248 203.21064130444745 L123.51606361567974 202.95283095021466 L122.14496605098248 203.36298720021466 L121.27192489802837 204.54657987733106 L121.00825302302837 207.1129866041682 L121.00825302302837 213.15986351151685 L117.71528236567974 213.15986351151685 L117.71528236567974 200.71454838891248 L120.75043670833111 200.71454838891248 L120.75043670833111 202.41376892705182 L124.62934486567974 200.43330089230756 M70.27740947902203 201.2653316654704 L71.98834411799908 203.72626976151685 L68.88287536799908 204.3004866041682 L68.1270169466734 203.18720475812177 L66.53912536799908 202.80048505444745 L64.67584602534771 203.16376821179608 L64.30084697902203 203.831738988354 L64.62897293269634 204.42939237733106 L67.70514480769634 205.3551741041682 L71.3789700716734 206.820020238354 L72.41022102534771 209.26923708100537 L70.98053447902203 212.210645238354 L66.7500638216734 213.4411116041682 L62.72467605769634 212.4098606504939 L60.785221979022026 209.60908011574963 L64.08990852534771 209.105176488354 L64.94537822902203 210.5641587175868 L66.7500638216734 211.0622044004939 L68.67194168269634 210.5934567846797 L69.10553447902203 209.7145481504939 L68.87115947902203 209.09345463891248 L67.76959411799908 208.6598618425868 L62.718815729022026 207.054395238354 L61.24225132167339 204.25361351151685 L62.51959793269634 201.53486088891248 L66.48053161799908 200.43330089230756 M34.76556293666363 203.76142577309827 L36.66399948298931 203.76142577309827 L39.40618507564068 203.49189237733106 L40.49017421901226 202.64814333100537 L40.8827518671751 201.3122053541682 L40.33196680247784 199.76533011574963 L38.93743745982647 199.00361255784253 L36.441345140337944 198.88642565388898 L34.76556293666363 198.88642565388898 M21.77734486758709 201.4879877962611 L13.562498614192009 204.62861136574963 L21.77734486758709 207.88642601151685 L21.77734486758709 211.20283202309827 L10 206.0817368425868 L10 203.2458002962611 L21.77734486758709 198.14814106602887 M256.10641472041607 200.71454838891248 L258.35641853511333 200.71454838891248 L258.35641853511333 203.33955065388898 L256.10641472041607 203.33955065388898 L256.10641472041607 208.35517362733106 L256.1708640307188 210.1305659212611 L256.4638327807188 210.54658011574963 L257.0204734057188 210.7106442846797 L258.34468834102154 210.3942377962611 L258.62594597041607 212.94892624993543 L256.0243796557188 213.4411116041682 L254.41890709102154 213.1422849096797 L253.37007515132427 212.36884550233106 L252.90719978511333 211.08564452309827 L252.8017234057188 208.76532987733106 L252.8017234057188 203.33955065388898 L251.28999702632427 203.33955065388898 L251.28999702632427 200.71454838891248 L252.8017234057188 200.71454838891248 L252.8017234057188 198.24189142365674 L256.10641472041607 196.3200186290286 M183.942336961627 195.98017574329594 L183.942336961627 199.0270491041682 L180.64937584102154 199.0270491041682 L180.64937584102154 195.98017574329594 M114.58233825862408 195.98017574329594 L114.58233825862408 199.0270491041682 L111.28937713801861 199.0270491041682 L111.28937713801861 195.98017574329594 M108.03943626582623 195.98017574329594 L108.03943626582623 213.15986351151685 L104.98084060847759 213.15986351151685 L104.98084060847759 211.3317377962611 L103.18201057612896 212.91962818284253 L101.09021179378033 213.4411116041682 L97.41639129817486 211.7125959791682 L95.88708870112896 206.89033106942395 L97.37537376582623 202.07978383679608 L101.13709442317486 200.43330089230756 L104.74646560847759 202.1676732697032 L104.74646560847759 195.98017574329594 M78.57062332332134 195.98017574329594 L78.57062332332134 202.29658202309827 L82.37921707332134 200.43330089230756 L84.42999832332134 200.8551754154704 L85.80695144832134 201.93329886574963 L86.43976680934429 203.38642374654034 L86.60968773066998 205.85908011574963 L86.60968773066998 213.15986351151685 L83.31671707332134 213.15986351151685 L83.31671707332134 206.5856428541682 L83.12921993434429 204.10126761574963 L82.46710769832134 203.26337591786603 L81.27765648066998 202.95283095021466 L79.81281273066998 203.35126892705182 L78.86945240199566 204.55244020600537 L78.57062332332134 206.92548588891248 L78.57062332332134 213.15986351151685 L75.27765743434429 213.15986351151685 L75.27765743434429 195.98017574329594 M36.863219663500786 195.98017574329594 L40.98822109401226 196.23798654456357 L43.46087209880352 197.91962818284253 L44.45696823298931 201.2653316654704 L43.882751390337944 203.92548517365674 L42.42377035319805 205.6188459791682 L40.62493793666363 206.4333005346797 L37.027282640337944 206.67939380784253 L34.76556293666363 206.67939380784253 L34.76556293666363 213.15986351151685 L31.296811029314995 213.15986351151685 L31.296811029314995 195.98017574329594 M160.58120926015704 438.0310204914244 L158.78823478811114 438.60523733407575 L158.14370353811114 439.7653940609129 L158.6593266307625 440.9607079914244 L159.97183044545977 441.4646151950987 L161.67104919545977 440.8786776950987 L162.45620926015704 439.7888329914244 L162.5851078807625 438.1833628109129 L162.5851078807625 437.52711328775007 M180.21799286001055 434.0818003109129 L179.52657898061602 436.2146142414244 L184.44845398061602 436.2146142414244 L183.7101765453133 434.04078516275007 L181.99923713796466 433.29664263040144 M121.53798778646319 434.0818003109129 L120.84658344381182 436.2146142414244 L125.76845844381182 436.2146142414244 L125.03017624013751 434.04078516275007 L123.31923683278887 433.29664263040144 M186.18283470266192 432.6111010006102 L187.71799286001055 438.23023828775007 L179.46798523061602 438.23023828775007 L180.26486595266192 440.50953420907575 L182.16329773061602 441.32398638040144 L183.46408088796466 440.9021142414244 L184.26096161001055 439.54273733407575 L187.54221161001055 440.09351763040144 L185.54415901296466 442.8415683200987 L182.1281452953133 443.78492388040144 L177.3234577953133 441.6638329914244 L176.0929890453133 437.37476858407575 L177.71017273061602 432.5290659359129 L181.80002411001055 430.77711138040144 M163.86245926015704 431.2985971859129 L165.38003166311114 432.6228168895872 L165.81948478811114 435.5700829914244 L165.7843323528084 439.4138315609129 L165.94253738515704 441.83375391275007 L166.53433044545977 443.50367578775007 L163.27652176015704 443.50367578775007 L162.96011169545977 442.53101858407575 L162.84292419545977 442.14429888040144 L161.0382386028084 443.37476763040144 L158.9874573528084 443.78492388040144 L155.95815857045977 442.74195703775007 L154.8507328807625 440.10523828775007 L155.3546448528084 438.22437795907575 L156.76675041311114 436.95875200540144 L159.38589294545977 436.1911729267271 L162.5851078807625 435.38258108407575 L162.5851078807625 435.0544575145872 L162.1163578807625 433.7009433200987 L160.34683426015704 433.29664263040144 L158.97573669545977 433.6423471859129 L158.17886551015704 434.85523733407575 L155.19058426015704 434.3161753109129 L156.92495544545977 431.6443017414244 L160.58120926015704 430.77711138040144 M150.18283088796466 431.16969141275007 L151.54806335561602 432.1716454914244 L152.19259460561602 433.5544565609129 L152.37423141591876 435.76930078775007 L152.37423141591876 443.50367578775007 L149.0812702953133 443.50367578775007 L149.0812702953133 437.1521142414244 L148.8703270732674 434.5446923664244 L148.18477829091876 433.62476858407575 L147.04220016591876 433.29664263040144 L145.5070467769417 433.7653950145872 L144.57540710561602 435.00758203775007 L144.32345588796466 437.8669575145872 L144.32345588796466 443.50367578775007 L141.03048523061602 443.50367578775007 L141.03048523061602 431.0583642414244 L144.08908088796466 431.0583642414244 L144.08908088796466 432.88648638040144 L148.19064338796466 430.77711138040144 M139.63979919545977 431.39820608407575 L138.6202688991341 434.26929983407575 L137.0733948528084 433.7302401950987 L135.9015198528084 434.1110971859129 L135.14565666311114 435.4880503109129 L134.8702688991341 439.65992483407575 L134.8702688991341 443.50367578775007 L131.57729824178546 443.50367578775007 L131.57729824178546 431.0583642414244 L134.6358938991341 431.0583642414244 L134.6358938991341 432.82789263040144 L136.0480042278084 431.1755517414244 L137.47183044545977 430.77711138040144 M127.50283439748614 432.6111010006102 L129.0379877864632 438.23023828775007 L120.78798969381182 438.23023828775007 L121.58486564748614 440.50953420907575 L123.48330219381182 441.32398638040144 L124.78408058278887 440.9021142414244 L125.58095653646319 439.54273733407575 L128.8622065364632 440.09351763040144 L126.86415870778887 442.8415683200987 L123.44814499013751 443.78492388040144 L118.64345749013751 441.6638329914244 L117.41298874013751 437.37476858407575 L119.03017719381182 432.5290659359129 L123.12001903646319 430.77711138040144 M90.82333047979205 436.70680078775007 L95.51083047979205 436.70680078775007 L93.14364154928057 430.3318003109129 M172.51896103017657 431.0583642414244 L174.76895530813067 431.0583642414244 L174.76895530813067 433.68336233407575 L172.51896103017657 433.68336233407575 L172.51896103017657 438.69899067193586 L172.5834103404793 440.47437700540144 L172.8763790904793 440.89039358407575 L173.4330197154793 441.0544589450987 L174.75723465078204 440.73804888040144 L175.03849228017657 443.29273733407575 L172.4369259654793 443.78492388040144 L170.83145340078204 443.4860995700987 L169.78263099782794 442.71266016275007 L169.31973655813067 441.4294579914244 L169.2142697154793 439.10914453775007 L169.2142697154793 433.68336233407575 L167.70255287282794 433.68336233407575 L167.70255287282794 431.0583642414244 L169.2142697154793 431.0583642414244 L169.2142697154793 428.58570608407575 L172.51896103017657 426.6638329914244 M113.8389559566292 431.0583642414244 L116.08895500295489 431.0583642414244 L116.08895500295489 433.68336233407575 L113.8389559566292 433.68336233407575 L113.8389559566292 438.69899067193586 L113.90341003530352 440.47437700540144 L114.19637878530352 440.89039358407575 L114.75301941030352 441.0544589450987 L116.07723911397784 440.73804888040144 L116.3584872066292 443.29273733407575 L113.75692566030352 443.78492388040144 L112.15145786397784 443.4860995700987 L111.10263069265216 442.71266016275007 L110.63973625295489 441.4294579914244 L110.53426941030352 439.10914453775007 L110.53426941030352 433.68336233407575 L109.02255256765216 433.68336233407575 L109.02255256765216 431.0583642414244 L110.53426941030352 431.0583642414244 L110.53426941030352 428.58570608407575 L113.8389559566292 426.6638329914244 M107.00289447896807 426.32398638040144 L107.00289447896807 443.50367578775007 L103.70992382161944 443.50367578775007 L103.70992382161944 426.32398638040144 M95.01864154928057 426.32398638040144 L101.89754922979205 443.50367578775007 L98.12411268346636 443.50367578775007 L96.62411172979205 439.60133108407575 L89.7569247066292 439.60133108407575 L88.33895404928057 443.50367578775007 L84.6592684566292 443.50367578775007 L91.35067422979205 426.32398638040144 M243.1166477977547 409.8151329448851 L242.42523391836016 411.94794568330366 L247.34710891836016 411.94794568330366 L246.60883148305743 409.77411779672224 L244.89790161245196 409.02997586042005 M228.70460708730548 409.9616173198851 L227.91359146230548 412.744821636978 L228.46437652700274 415.6276348522337 L230.69093902700274 416.9166961601408 L232.62453277700274 415.9499004772337 L233.42140396230548 413.06122812539655 L232.6479740917 409.9733367851408 L230.66749771230548 409.02997586042005 M147.0926590739998 409.8151329448851 L146.40124519460528 411.94794568330366 L151.32312019460528 411.94794568330366 L150.58484275930255 409.77411779672224 L148.8739033519539 409.02997586042005 M132.68060882680743 409.9616173198851 L131.88959320180743 412.744821636978 L132.4403734981331 415.6276348522337 L134.6669359981331 416.9166961601408 L136.6005297481331 415.9499004772337 L137.39740570180743 413.06122812539655 L136.6239662944588 409.9733367851408 L134.64349945180743 409.02997586042005 M221.9095536052498 406.79169449121076 L221.9095536052498 419.23700842172224 L218.61659248464434 419.23700842172224 L218.61659248464434 406.79169449121076 M185.83925445669024 406.79169449121076 L185.83925445669024 412.510446636978 L186.02089126699298 415.72724136621076 L186.68299873464434 416.66474255830366 L187.9017468272957 417.01044592172224 L189.41347320669024 416.54755505830366 L190.32753189199298 415.39911898881513 L190.5736275493416 412.0416954448851 L190.5736275493416 406.79169449121076 L193.86659820669024 406.79169449121076 L193.86659820669024 419.23700842172224 L190.8080025493416 419.23700842172224 L190.8080025493416 417.373727886978 L189.0208931743416 418.94403967172224 L186.68299873464434 419.5182588985594 L184.43300445669024 418.9674774101408 L182.99159248464434 417.42060217172224 L182.5462837993416 414.66669592172224 L182.5462837993416 406.79169449121076 M125.88556011312335 406.79169449121076 L125.88556011312335 419.23700842172224 L122.59258945577471 419.23700842172224 L122.59258945577471 406.79169449121076 M249.0814801036629 408.34443125039655 L250.6166477977547 413.96356972962934 L242.36664016836016 413.96356972962934 L243.1635113536629 416.2428668430479 L245.06195266836016 417.0573213985594 L246.36274536245196 416.63544568330366 L247.1596165477547 415.2760711601408 L250.4408665477547 415.8268538406523 L248.44282348745196 418.5748985698851 L245.02680023305743 419.5182588985594 L240.22211273305743 417.39716562539655 L238.99164398305743 413.108100025955 L240.60882766836016 408.262399761978 L244.6986790477547 406.51044461042005 M213.60462387197344 407.3424765756758 L215.3155537425789 409.80341467172224 L212.2100849925789 410.3776338985594 L211.4542313396248 409.2643514564665 L209.8663349925789 408.8776317527922 L208.00305564992755 409.2409137180479 L207.62805183523028 409.9088827064665 L207.95618255727618 410.50653967172224 L211.03235443227618 411.4323225906523 L214.7061844646248 412.8971651485594 L215.73743064992755 415.34638437539655 L214.30774887197344 418.2877913406523 L210.0772782146248 419.5182588985594 L206.05188568227618 418.4870079448851 L204.11242683523028 415.6862286022337 L207.41711814992755 415.1823213985594 L208.27258308523028 416.6413048198851 L210.0772782146248 417.139352886978 L211.99915130727618 416.6706016948851 L212.43273933523028 415.7916942527922 L212.19836433523028 415.17060312539655 L211.0968037425789 414.7370079448851 L206.04602058523028 413.1315401485594 L204.5694657146248 410.33075842172224 L205.84680755727618 407.61200818330366 L209.8077412425789 406.51044461042005 M153.05750091665118 408.34443125039655 L154.5926590739998 413.96356972962934 L146.34265144460528 413.96356972962934 L147.13953216665118 416.2428668430479 L149.03796394460528 417.0573213985594 L150.3387471019539 416.63544568330366 L151.1356278239998 415.2760711601408 L154.4168778239998 415.8268538406523 L152.4188252269539 418.5748985698851 L149.00281150930255 419.5182588985594 L144.19812400930255 417.39716562539655 L142.96765525930255 413.108100025955 L144.58484371297686 408.262399761978 L148.6746903239998 406.51044461042005 M117.58062084310382 407.3424765756758 L119.29155548208087 409.80341467172224 L116.18608673208087 410.3776338985594 L115.43022831075518 409.2643514564665 L113.84233673208087 408.8776317527922 L111.9790573894295 409.2409137180479 L111.60405834310382 409.9088827064665 L111.93218429677813 410.50653967172224 L115.00835617177813 411.4323225906523 L118.68218143575518 412.8971651485594 L119.7134323894295 415.34638437539655 L118.28374584310382 418.2877913406523 L114.05327518575518 419.5182588985594 L110.02788742177813 418.4870079448851 L108.08843334310382 415.6862286022337 L111.3931198894295 415.1823213985594 L112.24858959310382 416.6413048198851 L114.05327518575518 417.139352886978 L115.97515304677813 416.6706016948851 L116.40874584310382 415.7916942527922 L116.17437084310382 415.17060312539655 L115.07280548208087 414.7370079448851 L110.02202709310382 413.1315401485594 L108.54546268575518 410.33075842172224 L109.82280929677813 407.61200818330366 L113.78374298208087 406.51044461042005 M103.71349533193438 406.90302285462934 L105.07873018377154 407.9049775293501 L105.72325904958575 409.28778859883863 L105.90490539663165 411.50263222962934 L105.90490539663165 419.23700842172224 L102.61193473928302 419.23700842172224 L102.61193473928302 412.88544687539655 L102.40099390142291 410.27802380830366 L101.71544988744586 409.3581012180479 L100.57286937826007 409.02997586042005 L99.03771598928302 409.4987264564665 L98.10607393377154 410.74091586381513 L97.85412033193438 413.6002913406523 L97.85412033193438 419.23700842172224 L94.56115205877154 419.23700842172224 L94.56115205877154 406.79169449121076 L97.61974533193438 406.79169449121076 L97.61974533193438 408.6198190143736 L101.72130544774859 406.51044461042005 M168.1516190349373 406.1998996427687 L166.83911522024005 410.635446636978 L168.18677147024005 415.059274761978 L171.6086502849373 416.5651324680479 L175.01294334524005 415.0709930351408 L176.34302337758868 410.588568775955 L175.04810531728594 406.182321636978 L171.6086502849373 404.7291949680479 M200.73762138479083 406.79169449121076 L202.98761566274493 406.79169449121076 L202.98761566274493 409.4166949680479 L200.73762138479083 409.4166949680479 L200.73762138479083 414.43232092172224 L200.80207069509356 416.2077108314665 L201.09503944509356 416.6237262180479 L201.65168007009356 416.7877891948851 L202.9758950053963 416.4713827064665 L203.25715263479083 419.0260711601408 L200.65558632009356 419.5182588985594 L199.0501137553963 419.2194298198851 L198.0012913524422 418.44599160462934 L197.53839691274493 417.16278943330366 L197.43293007009356 414.84247717172224 L197.43293007009356 409.4166949680479 L195.9212132274422 409.4166949680479 L195.9212132274422 406.79169449121076 L197.43293007009356 406.79169449121076 L197.43293007009356 404.3190384200247 L200.73762138479083 402.3971638372572 M236.70265396230548 402.05731961042005 L236.70265396230548 419.23700842172224 L233.6440678417 419.23700842172224 L233.6440678417 417.4088838985594 L231.8452282726082 418.9967742851408 L229.75343902700274 419.5182588985594 L226.07959945791094 417.7897432735594 L224.5503063976082 412.96747836381513 L226.03859146230548 408.156928150955 L229.80030258291094 406.51044461042005 L233.4096928417 408.244818775955 L233.4096928417 402.05731961042005 M221.9095536052498 402.05731961042005 L221.9095536052498 405.1041952064665 L218.61659248464434 405.1041952064665 L218.61659248464434 402.05731961042005 M140.67865570180743 402.05731961042005 L140.67865570180743 419.23700842172224 L137.6200600444588 419.23700842172224 L137.6200600444588 417.4088838985594 L135.82123001211016 418.9967742851408 L133.7294359981331 419.5182588985594 L130.05560596578448 417.7897432735594 L128.52630813711016 412.96747836381513 L130.01459320180743 408.156928150955 L133.77630909078448 406.51044461042005 L137.3856850444588 408.244818775955 L137.3856850444588 402.05731961042005 M125.88556011312335 402.05731961042005 L125.88556011312335 405.1041952064665 L122.59258945577471 405.1041952064665 L122.59258945577471 402.05731961042005 M91.29930933111041 402.05731961042005 L91.29930933111041 419.23700842172224 L87.83055980794757 419.23700842172224 L87.83055980794757 402.05731961042005 M177.64966209524005 404.1198194316061 L179.9289627849373 410.6706026485594 L177.6672383128914 417.1803680351408 L171.62037094228594 419.52997717172224 L165.52662094228594 417.19208630830366 L163.26489647024005 410.752634136978 L164.0500565349373 406.34638461381513 L165.64966400258868 403.9909127643736 L167.87037094228594 402.4440387180479 L171.5734883128914 401.7643504133852 M162.2413464366707 401.7643504133852 L157.94056137197344 419.52997717172224 L155.51478584401934 419.52997717172224 L159.76868827932208 401.7643504133852 M73.89312167756884 401.7643504133852 L78.18218429677813 411.12763199121076 L74.85406060808032 411.12763199121076 L72.5337483464989 405.39716455251295 L70.22515435808032 411.12763199121076 L66.87359054677813 411.12763199121076 L71.27984006994097 401.7643504133852 M152.40473113959482 255.45233986112407 L215.89185192638985 275.9320562439612 L229.71566048480483 339.9311699403271 L193.36416390526898 382.93857434428503 L103.76540473035668 378.3306381581467 L82.77369543794869 301.53170172250753 M146.26081622474368 285.65992152580884 L115.02924874091711 306.6516308182168 L122.1971494749101 350.6830210413166 L181.5883269851377 359.8988934135933 L207.69996537325497 332.2512762967632 L191.8281851765562 294.3638009885146 M143.70085167688904 302.0436946320785 L151.8927382300239 309.72358827564244 L147.28480204388552 320.47543937663187 L133.4609934854705 324.05938974362834 L130.38903602804493 310.2355811852134 M184.1482915329923 312.283552823497 L186.19626317127603 322.01141810534466 L168.7885042458645 322.01141810534466 L164.1805680597261 311.25956700435523 L169.81249006500633 304.6036591799332 M168.7885042458645 333.2752621159051 L175.9564049798575 341.46714866903994 L165.20455387886798 349.65903522217474 L149.84476659174015 341.97914157861084 L155.47668859702037 333.78725502547604 M171.86046170329004 312.283552823497 L171.86046170329004 316.8914890096354 L178.51636952771207 316.8914890096354 L176.9803907989993 311.7715599139261 M141.14088712903438 312.283552823497 L137.5569367620379 315.35551028092266 L137.5569367620379 317.40348191920634 L143.70085167688904 317.40348191920634 L145.23683040560184 314.33152446178076 M790.2360244145598 384.67476810213907 L789.3571181645598 387.51070703265054 L790.2360244145598 390.34664238688333 L792.4039931645598 391.3310166716276 L794.566106354257 390.34664238688333 L795.4391475072111 387.48726810213907 L794.566106354257 384.67476810213907 L792.4039931645598 383.6903938173948 M882.7207656254973 384.5400031923948 L881.9238944401945 387.2997685789762 L882.7559180608 390.3993770003019 L884.7832579961027 391.40132988688333 L886.6934295048918 390.4814084887205 L887.4551482548918 387.4638291716276 L886.6699881901945 384.5575782179533 L884.7246642461027 383.60835994479044 M834.1518493046965 384.45796931979044 L833.3608336796965 387.24117363688333 L833.9116092076506 390.1239856600462 L836.1381717076506 391.41305054423196 L838.0717654576506 390.4462512850462 L838.8686461796965 387.5575813173948 L838.0952067723479 384.46968997713907 L836.1147399296965 383.52632964846475 M766.1481328358855 384.4462510466276 L765.3805537572111 387.2528907179533 L766.1481328358855 390.1532825350462 L768.0407138219084 391.073203933209 L770.0797744145598 390.1298471808134 L770.9118075719084 387.33492459055765 L770.1149316182341 384.46382964846475 L768.0993075719084 383.52632964846475 M875.3807921757902 381.2880500673948 L875.3807921757902 393.7333604216276 L872.0878310551848 393.7333604216276 L872.0878310551848 381.2880500673948 M804.6304984441008 381.2880500673948 L804.6304984441008 387.00679863688333 L804.8121352544035 390.2235957503019 L805.4742427220549 391.1610957503019 L806.6929908147063 391.5067991137205 L808.2047171941008 391.0439082503019 L809.1187758794035 389.8954721808134 L809.3648715367522 386.53804744479044 L809.3648715367522 381.2880500673948 L812.6578421941008 381.2880500673948 L812.6578421941008 393.7333604216276 L809.5992465367522 393.7333604216276 L809.5992465367522 391.87007869479044 L807.8121371617522 393.4403940558134 L805.4742427220549 394.01461209055765 L803.2242484441008 393.4638294100462 L801.7828364720549 391.9169553637205 L801.3375277867522 389.1630503058134 L801.3375277867522 381.2880500673948 M739.3488068928923 381.2880500673948 L739.3488068928923 393.7333604216276 L736.0558362355437 393.7333604216276 L736.0558362355437 381.2880500673948 M889.2949767461027 382.7060165524183 L890.8067031254973 387.4403938173948 L889.2832656254973 392.28609527346475 L885.5918593754973 394.01461209055765 L883.7227149358 393.60445584055765 L881.9590468754973 392.19820703265054 L881.9590468754973 398.46773709055765 L878.6660857548918 398.46773709055765 L878.6660857548918 381.2880500673948 L881.7363829961027 381.2880500673948 L881.7363829961027 383.1161728024183 L883.3535857548918 381.59273709055765 L885.6153006901945 381.00679839846475 M860.99566415455 381.98531533476694 L862.9234023442473 384.9677344679533 L859.67730477955 385.5536731600462 L858.9331717839445 384.0888294100462 L857.4273009648527 383.59664226767404 L855.4644103398527 384.4462510466276 L854.7319884648527 387.2880503058134 L855.4761309972014 390.41695560213907 L857.4741740575041 391.3310166716276 L859.0093322148527 390.79781616923196 L859.85308602955 388.9638301253019 L863.0874534001555 389.5146116137205 L861.1538596501555 392.87789429423196 L857.3218341222014 394.01461209055765 L852.96832040455 392.29195560213907 L851.3452716222014 387.5224241137205 L852.9741759648527 382.723594558209 L857.3804278722014 381.00679839846475 M825.2007480015959 381.39937664267404 L826.5659804692473 382.40132952925546 L827.2105117192473 383.78414238688333 L827.39214852955 385.9989866137205 L827.39214852955 393.7333604216276 L824.0991874089445 393.7333604216276 L824.0991874089445 387.3817988753019 L823.8882441868986 384.7743770003019 L823.20269540455 383.8544550060926 L822.06011727955 383.52632964846475 L820.5249686589445 383.99508084055765 L819.5933242192473 385.2372678637205 L819.3413730015959 388.09664214846475 L819.3413730015959 393.7333604216276 L816.0484023442473 393.7333604216276 L816.0484023442473 381.2880500673948 L819.1069980015959 381.2880500673948 L819.1069980015959 383.1161728024183 L823.2085605015959 381.00679839846475 M797.0211787572111 382.840782058209 L798.8258643498625 387.47554744479044 L797.0036025395598 392.1571906923948 L792.4157138219084 394.01461209055765 L789.1520400395598 393.2411738753019 L786.7907138219084 390.9735950350462 L785.982121979257 387.33492459055765 L786.7907138219084 384.1591426253019 L789.0817256322111 381.8153938173948 L792.3922725072111 381.00679839846475 M785.3297133794035 381.6278907179533 L784.3101783147063 384.4989856600462 L782.7633090367522 383.9599242329298 L781.5914340367522 384.34078181979044 L780.8355708470549 385.7177373289762 L780.5601783147063 389.88961185213907 L780.5601783147063 393.7333604216276 L777.2672124257292 393.7333604216276 L777.2672124257292 381.2880500673948 L780.3258033147063 381.2880500673948 L780.3258033147063 383.05758084055765 L781.7379184117522 381.40523697134836 L783.1617446294035 381.00679839846475 M771.0641475072111 383.0341425060926 L771.0641475072111 381.2880500673948 L774.1461797108855 381.2880500673948 L774.1461797108855 392.45601738688333 L773.7829013219084 395.7489856600462 L772.7633662572111 397.4599250673948 L771.0114140858855 398.43257988688333 L768.2399316182341 398.78414238688333 L763.7516494145598 397.70015801188333 L762.4274297108855 394.95211209055765 L762.4391503682341 394.5536741137205 L766.2008662572111 395.01070822474344 L766.6344638219084 395.91304863688333 L768.1110234608855 396.26461113688333 L770.0446172108855 395.8778938173948 L770.7008691182341 395.0458606600462 L770.8532138219084 393.5341426253019 L770.8532138219084 391.7177375673948 L767.1266503682341 393.7333604216276 L763.1539912572111 391.61226834055765 L762.0055528035368 387.4403938173948 L763.5114140858855 382.65914226767404 L767.2555537572111 381.00679839846475 M751.6516681065764 381.98531533476694 L753.5794015279021 384.9677344679533 L750.3333087315764 385.5536731600462 L749.5891661992277 384.0888294100462 L748.0833049168791 383.59664226767404 L746.1204142918791 384.4462510466276 L745.3879924168791 387.2880503058134 L746.1321349492277 390.41695560213907 L748.1301827779021 391.3310166716276 L749.6653361668791 390.79781616923196 L750.5090899815764 388.9638301253019 L753.7434621205534 389.5146116137205 L751.8098683705534 392.87789429423196 L747.9778380742277 394.01461209055765 L743.6243243565764 392.29195560213907 L742.0012755742277 387.5224241137205 L743.6301799168791 382.723594558209 L748.0364318242277 381.00679839846475 M723.5400243153777 384.3349250673948 L725.4384632458891 384.3349250673948 L728.1806488385405 384.06539107558115 L729.2646355977263 383.22164202925546 L729.6572108617033 381.88570345637186 L729.1064305653777 380.3388294100462 L727.7118988385405 379.5771112560926 L725.215806519052 379.45992435213907 L723.5400243153777 379.45992435213907 M710.5518050542082 382.06148589846475 L702.3369614830222 385.20211185213907 L710.5518050542082 388.4599253058134 L710.5518050542082 391.7763301253019 L698.774461378714 386.6552373289762 L698.774461378714 383.8192989945112 L710.5518050542082 378.72164214846475 M875.3807921757902 376.5536726534067 L875.3807921757902 379.60054720637186 L872.0878310551848 379.60054720637186 L872.0878310551848 376.5536726534067 M868.7088103642668 376.5536726534067 L868.7088103642668 393.7333604216276 L865.4158492436613 393.7333604216276 L865.4158492436613 376.5536726534067 M842.1498961796965 376.5536726534067 L842.1498961796965 393.7333604216276 L839.0913005223479 393.7333604216276 L839.0913005223479 391.90523828265054 L837.2924704899992 393.49312866923196 L835.2006717076506 394.01461209055765 L831.5268512120451 392.28609527346475 L829.9975486149992 387.4638291716276 L831.4858336796965 382.6532819389997 L835.2475543370451 381.00679839846475 L838.8569255223479 382.7411731600462 L838.8569255223479 376.5536726534067 M739.3488068928923 376.5536726534067 L739.3488068928923 379.60054720637186 L736.0558362355437 379.60054720637186 L736.0558362355437 376.5536726534067 M725.6376810422148 376.5536726534067 L729.7626824727263 376.8114855408369 L732.2353358617033 378.4931253909765 L733.2314296117033 381.8388291716276 L732.6572151532378 384.4989856600462 L731.1982317319121 386.19234646555765 L729.3993969311919 387.00679863688333 L725.801744019052 387.2528907179533 L723.5400243153777 387.2528907179533 L723.5400243153777 393.7333604216276 L720.0712747922148 393.7333604216276 L720.0712747922148 376.5536726534067 M801.1919978495155 468.8447544902509 L800.3951266642127 471.60451987683234 L801.2271502848182 474.7041294902509 L803.2544997568641 475.70608356892524 L805.1646521921668 474.7861609786695 L805.9263709421668 471.7685840457624 L805.1412204142127 468.8623330920881 L803.1959060068641 467.9131130307859 M786.5279963846717 468.8447544902509 L785.731125199369 471.60451987683234 L786.5631488199745 474.7041294902509 L788.5904982920204 475.70608356892524 L790.5006507273231 474.7861609786695 L791.2623694773231 471.7685840457624 L790.477218949369 468.8623330920881 L788.5319045420204 467.9131130307859 M828.6550620432411 468.76272300183234 L827.8640464182411 471.54592612683234 L828.4148314829383 474.4287393420881 L830.6413939829383 475.717803034181 L832.5749877329383 474.7510037749952 L833.3718589182411 471.862331423158 L832.5984290476356 468.7744424670881 L830.6179526682411 467.8310815423673 M815.0591281290565 468.61623743473945 L814.367714249662 470.7490513652509 L819.289589249662 470.7490513652509 L818.5513118143592 468.5752234786695 L816.8403724070106 467.8310815423673 M779.1880229349647 465.5928007692045 L779.1880229349647 478.0381141036695 L775.8950618143592 478.0381141036695 L775.8950618143592 465.5928007692045 M729.7737124796424 465.5928007692045 L729.7737124796424 471.31154993473945 L729.9553540583167 474.5283494323438 L730.6174662943397 475.465847048158 L731.8362143869911 475.8115527957624 L733.3479312296424 475.3486619323438 L734.2619946833167 474.2002246707624 L734.5080903406654 470.84280231892524 L734.5080903406654 465.5928007692045 L737.8010562296424 465.5928007692045 L737.8010562296424 478.0381141036695 L734.7424653406654 478.0381141036695 L734.7424653406654 476.17483118473945 L732.9553559656654 477.7451453536695 L730.6174662943397 478.31936458050666 L728.3674624796424 477.7685830920881 L726.9260552759681 476.2217078536695 L726.4807465906654 473.4678027957624 L726.4807465906654 465.5928007692045 M703.1560281153236 465.5928007692045 L703.1560281153236 478.0381141036695 L699.863057457975 478.0381141036695 L699.863057457975 465.5928007692045 M821.0239699717079 467.1455357402509 L822.5591185923133 472.7646754115766 L814.309120499662 472.7646754115766 L815.1060012217079 475.0439737170881 L817.004432999662 475.85842588841376 L818.3052161570106 475.4365525573438 L819.1020968790565 474.0771768420881 L822.3833373423133 474.62795833050666 L820.3852942820106 477.37600425183234 L816.9692805643592 478.31936458050666 L812.1645930643592 476.1982701152509 L810.9341243143592 471.9092080920881 L812.551307999662 467.0635048478788 L816.6411593790565 465.3115502923673 M807.7662185068641 467.0107690423673 L809.2779353495155 471.7451463073438 L807.7544978495155 476.59084895550666 L804.0630915995155 478.31936458050666 L802.1939471598182 477.90920713841376 L800.4302790995155 476.50295833050666 L800.4302790995155 482.77248958050666 L797.1373084421668 482.77248958050666 L797.1373084421668 465.5928007692045 L800.2076247568641 465.5928007692045 L800.2076247568641 467.4209264844602 L801.8248084421668 465.89748958050666 L804.0865329142127 465.3115502923673 M793.1022170420204 467.0107690423673 L794.6139338846717 471.7451463073438 L793.0904963846717 476.59084895550666 L789.3990901346717 478.31936458050666 L787.5299456949745 477.90920713841376 L785.7662776346717 476.50295833050666 L785.7662776346717 482.77248958050666 L782.4733069773231 482.77248958050666 L782.4733069773231 465.5928007692045 L785.5436232920204 465.5928007692045 L785.5436232920204 467.4209264844602 L787.1608069773231 465.89748958050666 L789.422531449369 465.3115502923673 M764.8028853769813 466.2900684207624 L766.7306235666786 469.2724881499952 L763.4845260019813 469.8584244579023 L762.7403834696327 468.39358249604163 L761.234522187284 467.9013965457624 L759.271631562284 468.7510047286695 L758.539209687284 471.5928027957624 L759.2833522196327 474.7217080920881 L761.2813952799354 475.6357715457624 L762.816553437284 475.102568659181 L763.6603072519813 473.2685826152509 L766.8946841593299 473.8193652957624 L764.9610904093299 477.1826443999952 L761.1290553446327 478.31936458050666 L756.7755416269813 476.5967080920881 L755.1524928446327 471.8271766036695 L756.781397187284 467.0283476442045 L761.1876490946327 465.3115502923673 M750.3439620371375 465.7041297286695 L751.7092040415321 466.70608321129737 L752.3537352915321 468.0888942807859 L752.5353721018348 470.3037391036695 L752.5353721018348 478.0381141036695 L749.2424014444862 478.0381141036695 L749.2424014444862 471.686550173158 L749.0314677591834 469.079128298158 L748.3459189768348 468.1592086881345 L747.2033408518348 467.8310815423673 L745.6681826944862 468.29983213841376 L744.7365477915321 469.5420191615766 L744.4845870371375 472.40139702259955 L744.4845870371375 478.0381141036695 L741.1916211481605 478.0381141036695 L741.1916211481605 465.5928007692045 L744.2502120371375 465.5928007692045 L744.2502120371375 467.4209264844602 L748.3517745371375 465.3115502923673 M715.4588893290077 466.2900684207624 L717.3866227503333 469.2724881499952 L714.1405299540077 469.8584244579023 L713.396387421659 468.39358249604163 L711.8905261393104 467.9013965457624 L709.9276355143104 468.7510047286695 L709.1952136393104 471.5928027957624 L709.939356171659 474.7217080920881 L711.9374040003333 475.6357715457624 L713.4725573893104 475.102568659181 L714.3163112040077 473.2685826152509 L717.5506833429847 473.8193652957624 L715.6170895929847 477.1826443999952 L711.785059296659 478.31936458050666 L707.4315455790077 476.5967080920881 L705.808496796659 471.8271766036695 L707.4374011393104 467.0283476442045 L711.843653046659 465.3115502923673 M687.3472455378089 468.639675173158 L689.2456820841346 468.639675173158 L691.9878700609718 468.3701441615766 L693.0718568201576 467.52639571129737 L693.4644320841346 466.19045594632087 L692.9136494036231 464.6435830920881 L691.5191200609718 463.8818631499952 L689.0230277414832 463.76467505394874 L687.3472455378089 463.76467505394874 M674.3590262766395 466.36623719632087 L666.1441818113838 469.5068619579023 L674.3590262766395 472.7646754115766 L674.3590262766395 476.081081423158 L662.5816826011453 470.95998743473945 L662.5816826011453 468.1240514844602 L674.3590262766395 463.02639583050666 M836.6531089182411 460.8584266334718 L836.6531089182411 478.0381141036695 L833.5945227976356 478.0381141036695 L833.5945227976356 476.20998838841376 L831.7957023020301 477.797881159181 L829.7038939829383 478.31936458050666 L826.0300734873329 476.59084895550666 L824.5007804270301 471.7685840457624 L825.9890464182411 466.95803562104163 L829.7507766123329 465.3115502923673 L833.3601477976356 467.04592624604163 L833.3601477976356 460.8584266334718 M779.1880229349647 460.8584266334718 L779.1880229349647 463.9053014844602 L775.8950618143592 463.9053014844602 L775.8950618143592 460.8584266334718 M772.5160220499549 460.8584266334718 L772.5160220499549 478.0381141036695 L769.2230609293495 478.0381141036695 L769.2230609293495 460.8584266334718 M703.1560281153236 460.8584266334718 L703.1560281153236 463.9053014844602 L699.863057457975 463.9053014844602 L699.863057457975 460.8584266334718 M689.4449022646461 460.8584266334718 L693.5699036951576 461.11623862683234 L696.0425570841346 462.7978787749952 L697.0386508341346 466.14358225762305 L696.4644339914832 468.8037381499952 L695.0054505701576 470.49709895550666 L693.2066205378089 471.31154993473945 L689.6089652414832 471.5576455920881 L687.3472455378089 471.5576455920881 L687.3472455378089 478.0381141036695 L683.8784960146461 478.0381141036695 L683.8784960146461 460.8584266334718 M776.0515853693939 546.9953522071573 L775.2547141840912 549.7551175937388 L776.0867378046967 552.8547260150644 L778.1140872767426 553.8566800937388 L780.0242397120453 552.9367586955759 L780.7859584620453 549.919179378483 L780.0008079340912 547.0129296169016 L778.0554935267426 546.0637113437388 M768.7116119196869 543.7434002742502 L768.7116119196869 556.1887130126688 L765.4186507990814 556.1887130126688 L765.4186507990814 543.7434002742502 M727.3319503596283 543.7434002742502 L730.3085204890228 552.5793370589945 L733.2147666743256 543.7434002742502 L736.6249248316742 543.7434002742502 L732.2303935816742 555.7199630126688 L731.4452335169769 557.8879305705759 L730.6190654566742 559.5519921169016 L729.7167178919769 560.4836341724131 L728.4628173640228 561.0402747974131 L726.7811748316742 561.2394925937388 L724.9178954890228 561.0402747974131 L724.6249267390228 558.4621497974131 L726.0194560816742 558.6144921169016 L727.7186748316742 557.9406639919016 L728.5624191096283 556.2238666400644 L723.8280460169769 543.7434002742502 M675.3036138346649 543.7434002742502 L675.3036138346649 556.1887130126688 L672.0106431773163 556.1887130126688 L672.0106431773163 543.7434002742502 M782.6258060267426 545.1613667592737 L784.1375228693939 549.8957428321573 L782.6140853693939 554.741447864506 L778.9226791193939 556.4699622974131 L777.0535346796967 556.059807239506 L775.2898666193939 554.6535560474131 L775.2898666193939 560.9230872974131 L771.9968959620453 560.9230872974131 L771.9968959620453 543.7434002742502 L775.0672122767426 543.7434002742502 L775.0672122767426 545.5715236053202 L776.6843959620453 544.0480861053202 L778.9461204340912 543.4621492013666 M754.3264743617035 544.440663753483 L756.2542125514008 547.4230870589945 L753.0081149867035 548.0090233669016 L752.2639724543549 546.544181405041 L750.7581111720062 546.0519936666224 L748.7952205470062 546.9016024455759 L748.0627986720062 549.7433993205759 L748.8069412043549 552.8723058089945 L750.8049842646576 553.786366878483 L752.3401424220062 553.2531663760874 L753.1838962367035 551.4191803321573 L756.4182731440521 551.969960628483 L754.4846793940521 555.3332445010874 L750.6526443293549 556.4699622974131 L746.2991306117035 554.7473046169016 L744.6760818293549 549.9777755126688 L746.3049861720062 545.1789459571573 L750.7112380793549 543.4621492013666 M707.0306751063324 544.2941805705759 L708.741614513681 546.755116878483 L705.636145763681 547.3293372974131 L704.8802825739838 546.2160560474131 L703.292395763681 545.8293357476923 L701.4291116526581 546.1926171169016 L701.0541126063324 546.8605861053202 L701.3822385600067 547.4582430705759 L704.4584104350067 548.3840247974131 L708.1322356989838 549.8488685474131 L709.1634866526581 552.2980853900644 L707.7338001063324 555.2394923553202 L703.5033294489838 556.4699622974131 L699.4779416850067 555.4387113437388 L697.5384876063324 552.6379308089945 L700.8431741526581 552.134025989506 L701.6986438563324 553.5930082187388 L703.5033294489838 554.0910550937388 L705.4252073100067 553.6223050937388 L705.8588001063324 552.7434000358317 L705.6244251063324 552.1223065242502 L704.522864513681 551.6887125358317 L699.4720813563324 550.083244739506 L697.9955169489838 547.282460628483 L699.2728635600067 544.5637121782038 L703.233802013681 543.4621492013666 M687.606475048349 544.440663753483 L689.5342084696747 547.4230870589945 L686.288115673349 548.0090233669016 L685.5439731410004 546.544181405041 L684.0381118586517 546.0519936666224 L682.0752212336517 546.9016024455759 L681.3427993586517 549.7433993205759 L682.0869418910004 552.8723058089945 L684.0849897196747 553.786366878483 L685.6201431086517 553.2531663760874 L686.463896923349 551.4191803321573 L689.6982690623261 551.969960628483 L687.7646753123261 555.3332445010874 L683.9326450160004 556.4699622974131 L679.579131298349 554.7473046169016 L677.9560825160004 549.9777755126688 L679.5849868586517 545.1789459571573 L683.9912387660004 543.4621492013666 M659.4948312571503 546.7902740821573 L661.393267803476 546.7902740821573 L664.1354557803131 546.520741878483 L665.2194425394989 545.6769928321573 L665.612017803476 544.3410542592737 L665.0612375071503 542.7941796169016 L663.6667057803131 542.0324608669016 L661.1706134608246 541.9152745589945 L659.4948312571503 541.9152745589945 M646.5066119959808 544.5168367013666 L638.2917681267716 547.6574620589945 L646.5066119959808 550.915273128483 L646.5066119959808 554.2316815242502 L634.7292683204867 549.1105863437388 L634.7292683204867 546.2746497974131 L646.5066119959808 541.1769923553202 M768.7116119196869 539.0090242013666 L768.7116119196869 542.0558974132273 L765.4186507990814 542.0558974132273 L765.4186507990814 539.0090242013666 M762.0396110346771 539.0090242013666 L762.0396110346771 556.1887130126688 L758.7466499140717 556.1887130126688 L758.7466499140717 539.0090242013666 M715.2184268763519 539.0090242013666 L715.2184268763519 548.1262096748087 L719.0738937190033 543.7434002742502 L723.1285831263519 543.7434002742502 L718.8746806910492 548.2902750358317 L723.4332725337006 556.1887130126688 L719.8824855616547 556.1887130126688 L716.7535850337006 550.5988678321573 L715.2184268763519 552.2043368205759 L715.2184268763519 556.1887130126688 L711.9254562190033 556.1887130126688 L711.9254562190033 539.0090242013666 M675.3036138346649 539.0090242013666 L675.3036138346649 542.0558974132273 L672.0106431773163 542.0558974132273 L672.0106431773163 539.0090242013666 M661.5924879839874 539.0090242013666 L665.7174894144989 539.2668363437388 L668.190142803476 540.9484767899248 L669.186236553476 544.2941805705759 L668.6120197108246 546.9543358669016 L667.1530362894989 548.6476966724131 L665.3542062571503 549.4621488437388 L661.7565509608246 549.7082409248087 L659.4948312571503 549.7082409248087 L659.4948312571503 556.1887130126688 L656.0260817339874 556.1887130126688 L656.0260817339874 539.0090242013666 M290.72504260172036 290.76894773444207 L291.47481118762363 306.69845159496265 L307.5064890497145 305.9178091501138 L306.64575049103144 289.82380303603196 M333.4762349803883 321.4728294196101 L333.4762349803883 322.12907894277294 L333.3473268230397 323.7345491232844 L332.562171526714 324.82439144277294 L330.862952776714 325.41032894277294 L329.55045373038826 324.9064229311915 L329.0348258693653 323.71110900068004 L329.6793571193653 322.5509546580287 L331.4723268230397 321.9767354311915 M345.33195645408216 317.2423605504008 L347.3124232967335 318.1857190909358 L348.08586270408216 321.2736092390986 L347.28898675040784 324.1622827830287 L345.35539300040784 325.1290796580287 L343.12883050040784 323.8400171580287 L342.57805020408216 320.95720394277294 L343.36906582908216 318.17400081777294 M361.2187352855641 315.00407858514507 L361.2187352855641 322.8790794196101 L361.6640439708668 325.632986861703 L363.10545117454114 327.1798609080287 L365.3554549892384 327.73064239644725 L367.6933398921925 327.1564231696101 L369.4804492671925 325.58610900068004 L369.4804492671925 327.4493919196101 L372.53904492454114 327.4493919196101 L372.53904492454114 315.00407858514507 L369.2460742671925 315.00407858514507 L369.2460742671925 320.25407894277294 L368.99998814658704 323.6115012946101 L368.08591992454114 324.7599385561915 L366.5742030818898 325.2228294196101 L365.3554549892384 324.8771260561915 L364.69334275321546 323.9396260561915 L364.51170117454114 320.72282775068004 L364.51170117454114 315.00407858514507 M354.6170440395314 315.00407858514507 L354.6170440395314 327.4493919196101 L357.91001469688 327.4493919196101 L357.91001469688 315.00407858514507 M380.488196917339 314.7228281083079 L376.52726323203626 315.82439108514507 L375.2499213893849 318.5431419196101 L376.72647625999036 321.34392364644725 L381.777259417339 322.94939144277294 L382.87882000999036 323.3829854311915 L383.11319500999036 324.00408013486583 L382.67960698203626 324.88298519277294 L380.7577338893849 325.35173638486583 L378.95303875999036 324.85368831777294 L378.09757382468763 323.39470489644725 L374.79288250999036 323.8986109080287 L376.73234135703626 326.69939263486583 L380.7577338893849 327.73064239644725 L384.9882045467335 326.50017364644725 L386.41788632468763 323.5587666811915 L385.3866401393849 321.10954864644725 L381.71281010703626 319.64470489644725 L378.63663823203626 318.7189231696101 L378.30850750999036 318.12126739644725 L378.68351132468763 317.4532978119822 L380.546790667339 317.09001644277294 L382.1346870143849 317.4767355504008 L382.890540667339 318.59001620435436 L385.996009417339 318.0157981696101 L384.2850795467335 315.55486007356365 M331.4723268230397 314.7228281083079 L327.81607777671394 315.59001608514507 L326.0817018230396 318.26189144277294 L329.0699830730396 318.8009522738429 L329.86685902671394 317.58806331777294 L331.2379518230397 317.2423605504008 L333.0074849803883 317.64665706777294 L333.4762349803883 319.00017364644725 L333.4762349803883 319.3282972159358 L330.277015276714 320.13689144277294 L327.6578727443653 320.90447052144725 L326.2457647998768 322.1700940909358 L325.74185998038826 324.0509544196101 L326.84928090171394 326.6876719775172 L329.8785796840626 327.73064239644725 L331.92936093406263 327.32048614644725 L333.734046526714 326.09001739644725 L333.851234026714 326.4767359080287 L334.1676393230397 327.4493919196101 L337.425452776714 327.4493919196101 L336.8336549480397 325.7794700446101 L336.67545468406263 323.35954769277294 L336.71060711936536 319.5157979311915 L336.27115399436536 316.56853182935436 L334.7535768230397 315.2443127217265 M312.78495223121223 313.1759540619822 L315.4919830043751 313.1759540619822 L318.0232349117237 313.2345472159358 L319.3298736293751 313.90837474488933 L319.79276568488655 315.3087668004008 L319.44120318488655 316.5978281083079 L318.468548365398 317.32439144277294 L315.3513589580494 317.5353293004008 L312.78495223121223 317.5353293004008 M354.6170440395314 310.26970385336597 L354.6170440395314 313.31657870435436 L357.91001469688 313.31657870435436 L357.91001469688 310.26970385336597 M348.0741420467335 310.26970385336597 L348.0741420467335 316.4572040619822 L344.4647660930592 314.7228281083079 L340.70305020408216 316.36931224488933 L339.2147651393849 321.1798606696101 L340.7440629680592 326.00212677144725 L344.41789300040784 327.73064239644725 L346.5096870143849 327.2091577830287 L348.3085170467335 325.62126739644725 L348.3085170467335 327.4493919196101 L351.36711270408216 327.4493919196101 L351.36711270408216 310.26970385336597 M309.3162027080494 310.26970385336597 L309.3162027080494 327.4493919196101 L312.78495223121223 327.4493919196101 L312.78495223121223 320.2775166811915 L313.48807723121223 320.2775166811915 L315.2341714580494 320.4708753409358 L316.27714068488655 321.1857198061915 L318.1052652080494 323.71110900068004 L320.61307818488655 327.4493919196101 L324.7615161617237 327.4493919196101 L322.66385943488655 324.09782989644725 L320.6892505367237 321.30876644277294 L318.8318267543751 319.8673604311915 L322.2302642543751 318.2794700446101 L323.36698443488655 315.08611126565654 L322.6169839580494 312.3790793004008 L320.6189361293751 310.7325951638194 L316.6169849117237 310.26970385336597 M292.6482966621357 309.9767352523776 L288.24204594687995 319.3400166811915 L291.59360886411247 319.3400166811915 L293.9022019584614 313.6095468583079 L296.22251481608924 319.3400166811915 L299.55063969687995 319.3400166811915 L295.2615776737171 309.9767352523776 M492.9162484606128 348.10469111740053 L465.36256800310605 330.65662811014755 L451.5383334665902 330.65662811014755 L448.0047410090918 336.7403220840906 L428.72163568787477 336.6963422280428 L428.3189880800151 348.10469111740053 M553.8758266960035 389.00749772796644 L555.8562935386549 389.95085686454786 L556.6297329460035 393.0387482048036 L555.8328522239576 395.92742055664075 L553.8992584739576 396.89421623954786 L551.6726959739576 395.60515612373365 L551.1219204460035 392.722341716385 L551.9129360710035 389.939138591385 M540.0982368980299 389.00749772796644 L541.8091763053785 389.7516390682222 L542.5474537406812 391.9254681468965 L537.6255787406812 391.9254681468965 L538.3169926200758 389.792654216385 M481.4182365928541 389.00749772796644 L483.12917123183115 389.7516390682222 L483.86745343550547 391.9254681468965 L478.94557843550547 391.9254681468965 L479.63698277815683 389.792654216385 M511.08260999068125 386.76921635875715 L511.08260999068125 394.6442160011293 L511.527918675984 397.3981234432222 L512.9693258796583 398.94499987373365 L515.219324925984 399.49578017005933 L517.5572193656812 398.9215609432222 L519.3443287406812 397.351247966385 L519.3443287406812 399.21453088531507 L522.4029243980299 399.21453088531507 L522.4029243980299 386.76921635875715 L519.1099537406812 386.76921635875715 L519.1099537406812 392.0192155242921 L518.8638580833326 395.3766390682222 L517.9497946296583 396.5250775218965 L516.4380777870069 396.9879671932222 L515.219324925984 396.6422638298036 L514.5572174583326 395.7047650218965 L514.3755758796583 392.487966716385 L514.3755758796583 386.76921635875715 M488.422392705525 386.76921635875715 L492.7231730018507 392.8043720127107 L488.23489079817637 399.21453088531507 L492.0903624091993 399.21453088531507 L494.64505086287363 395.3590592742921 L497.1762980018507 399.21453088531507 L501.2192667518507 399.21453088531507 L496.61379704817637 392.663747966385 L500.83254704817637 386.76921635875715 L496.96535954817637 386.76921635875715 L494.64505086287363 390.19109338531507 L492.4419249091993 386.76921635875715 M539.8990238700758 386.48796647796644 L535.8091724906812 388.23991924533857 L534.1919888053785 393.08562248954786 L535.4224575553785 397.3746868968965 L540.2271450553785 399.49578017005933 L543.6431587730299 398.552419841385 L545.6412113700758 395.80437392005933 L542.3599613700758 395.25359243164075 L541.5630806480299 396.6129669548036 L540.2622974906812 397.03484147796644 L538.3638657127271 396.22039049873365 L537.5669849906812 393.9410921932222 L545.8169926200758 393.9410921932222 L544.2818344627271 388.32195192585004 M531.5708244834791 386.48796647796644 L530.1469982658277 386.88640505085004 L528.734892705525 388.53874713192 L528.734892705525 386.76921635875715 L525.6762970481764 386.76921635875715 L525.6762970481764 399.21453088531507 L528.969267705525 399.21453088531507 L528.969267705525 395.37078112373365 L529.2446602378736 391.198904216385 L530.0005138908277 389.821951091385 L531.1723888908277 389.44109231243146 L532.719267705525 389.98015373954786 L533.7387932334791 387.1090593935014 M481.21901402815683 386.48796647796644 L477.12917218550547 388.23991924533857 L475.51198373183115 393.08562248954786 L476.74245248183115 397.3746868968965 L481.54713998183115 399.49578017005933 L484.9631584678541 398.552419841385 L486.96120152815683 395.80437392005933 L483.67995152815683 395.25359243164075 L482.8830803428541 396.6129669548036 L481.58229718550547 397.03484147796644 L479.683858254994 396.22039049873365 L478.88698468550547 393.9410921932222 L487.13698277815683 393.9410921932222 L485.6018293891798 388.32195192585004 M454.1128910575758 384.20281022796644 L442.3355473820816 389.3004670740129 L442.3355473820816 392.136404216385 L454.1128910575758 397.2574982048036 L454.1128910575758 393.9410921932222 L445.89804689034327 390.68327873954786 L454.1128910575758 387.54265397796644 M506.6179502998243 382.3746854067804 L503.31326375349863 384.2965602875711 L503.31326375349863 386.76921635875715 L501.80154691084726 386.76921635875715 L501.80154691084726 389.39421743164075 L503.31326375349863 389.39421743164075 L503.31326375349863 394.81999963531507 L503.41873059615 397.1403107048036 L503.88162503584726 398.4235140682222 L504.93045220717295 399.196951091385 L506.53592000349863 399.49578017005933 L509.1374815498243 399.00359243164075 L508.85623345717295 396.44890517005933 L507.53201375349863 396.765310466385 L506.97537312849863 396.60124868164075 L506.68240437849863 396.18523210296644 L506.6179502998243 394.4098410011293 L506.6179502998243 389.39421743164075 L508.86794934615 389.39421743164075 L508.86794934615 386.76921635875715 L506.6179502998243 386.76921635875715 M556.6180122886549 382.03484088192 L556.6180122886549 388.22234123954786 L553.0086411033521 386.48796647796644 L549.2469204460035 388.1344500185014 L547.7586353813062 392.9449972511293 L549.2879379783521 397.76726454505933 L552.9617584739576 399.49578017005933 L555.0535572563062 398.97429436454786 L556.8523872886549 397.38640517005933 L556.8523872886549 399.21453088531507 L559.9109829460035 399.21453088531507 L559.9109829460035 382.03484088192 M462.4018920455824 382.03484088192 L462.4018920455824 384.9410918355943 L467.4995482955824 384.9410918355943 L467.4995482955824 399.21453088531507 L470.9682978187452 399.21453088531507 L470.9682978187452 384.9410918355943 L476.0542357955824 384.9410918355943 L476.0542357955824 382.03484088192 M562.2376306764147 350.3393510426898 L562.2376306764147 350.99560056585267 L562.1087225190661 352.60106955427125 L561.3235672227404 353.69091306585267 L559.6243484727404 354.27685056585267 L558.3118494264147 353.77294455427125 L557.7962215653918 352.57763181585267 L558.4407528153918 351.4174762811084 L560.2337225190661 350.84325705427125 M586.5936001054308 343.5893503274341 L582.6326616517565 344.6909139003177 L581.3553150407336 347.4096635426898 L582.8318794480822 350.210445269527 L587.8826626054308 351.81591306585267 L588.9842231980822 352.24950705427125 L589.2185981980822 352.87060056585267 L588.7850006333849 353.74950681585267 L586.8631275407336 354.21825681585267 L585.0584419480822 353.72020994085267 L584.2029722444079 352.261226519527 L580.8982856980822 352.7651325311084 L582.8377397767565 355.56591306585267 L586.8631275407336 356.597164019527 L591.0935981980822 355.3666964616199 L592.5232799760363 352.42528711217835 L591.4920337907336 349.976070269527 L587.8182037583849 348.511226519527 L584.7420366517565 347.5854447926898 L584.4139106980822 346.987789019527 L584.7889097444079 346.3198200311084 L586.6521938554308 345.9565374698062 L588.2400806657336 346.34325717348054 L588.9959438554308 347.456539019527 L592.1014126054308 346.8823197926898 L590.3904731980822 344.4213828887363 M573.2495983354113 343.5893503274341 L569.2886646501086 344.6909139003177 L568.0113180390856 347.4096635426898 L569.4878824464342 350.210445269527 L574.5386608354113 351.81591306585267 L575.6402261964342 352.24950705427125 L575.8746011964342 352.87060056585267 L575.4410084001086 353.74950681585267 L573.5191305390856 354.21825681585267 L571.7144449464342 353.72020994085267 L570.8589752427599 352.261226519527 L567.5542886964342 352.7651325311084 L569.4937427751086 355.56591306585267 L573.5191305390856 356.597164019527 L577.7496011964342 355.3666964616199 L579.1792877427599 352.42528711217835 L578.1480367890856 349.976070269527 L574.4742115251086 348.511226519527 L571.3980396501086 347.5854447926898 L571.0699136964342 346.987789019527 L571.4449127427599 346.3198200311084 L573.3081920854113 345.9565374698062 L574.8960836640856 346.34325717348054 L575.6519420854113 347.456539019527 L578.7574108354113 346.8823197926898 L577.0464761964342 344.4213828887363 M560.2337225190661 343.5893503274341 L556.5774734727404 344.4565377082248 L554.843097519066 347.12841306585267 L557.8313787690661 347.6674750890155 L558.6282547227404 346.4545855368991 L559.9993475190661 346.10888098138764 L561.7688806764147 346.51317869085267 L562.2376306764147 347.866695269527 L562.2376306764147 348.1948188390155 L559.0384109727404 349.00341306585267 L556.4192684403918 349.770992144527 L555.0071628800889 351.0366169061084 L554.5032556764146 352.9174760426898 L555.6106765977403 355.5541947926898 L558.639975380089 356.597164019527 L560.690756630089 356.187007769527 L562.4954422227404 354.956539019527 L562.6126297227404 355.3432575311084 L562.9290350190661 356.3159135426898 L566.1868484727404 356.3159135426898 L565.5950506440661 354.6459916676898 L565.436850380089 352.22606931585267 L565.4720028153918 348.38231955427125 L565.0325496903918 345.43505404848054 L563.5149725190661 344.11083494085267 M551.7883499375839 343.5893503274341 L550.3645237199327 343.9877877082248 L548.9524133912583 345.64013098138764 L548.9524133912583 343.8706002082248 L545.8938177339096 343.8706002082248 L545.8938177339096 356.3159135426898 L549.1867883912583 356.3159135426898 L549.1867883912583 352.4721637811084 L549.4621761552353 348.30028806585267 L550.2180393449327 346.9233337487598 L551.3899143449325 346.5424749698062 L552.9367883912582 347.0815363969226 L553.9563186875839 344.21044443506196 M517.8664108029861 341.30419377941087 L506.0890683195848 346.40185092348054 L506.0890683195848 349.23778806585267 L517.8664108029861 354.35888205427125 L517.8664108029861 351.0424760426898 L509.65156782784646 347.7846625890155 L517.8664108029861 344.6440378274341 M535.3194745294113 338.8432564284225 L531.2061937562485 339.6987247909923 L527.9132254830856 342.8979447926898 L526.7882259599228 347.6674750890155 L527.7960379830856 352.2436479176898 L530.8077557794113 355.47802244085267 L535.5069740525742 356.6088822926898 L539.6964271775742 355.806148394527 L542.8546317330856 353.94872580427125 L542.8546317330856 347.104976519527 L535.3780682794113 347.104976519527 L535.3780682794113 349.99950681585267 L539.3507250062485 349.99950681585267 L539.3507250062485 352.1791950311084 L537.4698646775742 353.21630392927125 L535.2843197099228 353.6440387811084 L531.7218192330856 352.114742144527 L530.3624447099228 347.5268510426898 L531.7042406312485 343.2495078887363 L535.3194745294113 341.80810038703873 L537.8214271775742 342.54052136796906 L539.1866644135971 344.5385697926898 L542.6319750062485 343.8940391387363 L540.3175218812485 340.18505339282945 Z" />
<circle cx="443.40250488203935" cy="328.7909899030024" r="8" stroke="black" stroke-width="0" fill="green" />
<circle cx="464.88796157333127" cy="464.76200576201967" r="8" stroke="black" stroke-width="0" fill="white" />
<use x="291.083839494926" y="290.3048376492496" xlink:href="#apple" />
<circle cx="299.083839494926" cy="298.3048376492496" r="8" stroke="black" stroke-width="0" fill="red" />
<use x="-23.45621693410535" y="196.60469207996962" xlink:href="#apple" />
<circle cx="-15.456216934105349" cy="204.60469207996962" r="8" stroke="black" stroke-width="0" fill="red" />
<use x="298.588003460022" y="404.8767700367637" xlink:href="#killer" />
<circle cx="306.588003460022" cy="412.8767700367637" r="8" stroke="black" stroke-width="0" fill="black" />
<use x="447.1958024060541" y="411.31625039100936" xlink:href="#killer" />
<circle cx="455.1958024060541" cy="419.31625039100936" r="8" stroke="black" stroke-width="0" fill="black" />
<use x="560.3902430141055" y="294.15631446062304" xlink:href="#killer" />
<circle cx="568.3902430141055" cy="302.15631446062304" r="8" stroke="black" stroke-width="0" fill="black" />
<use x="464.6196782846706" y="453.89614183219845" xlink:href="#apple" />
<circle cx="472.6196782846706" cy="461.89614183219845" r="8" stroke="black" stroke-width="0" fill="red" />
<use x="464.6196782846706" y="462.08802838533325" xlink:href="#killer" />
<circle cx="472.6196782846706" cy="470.08802838533325" r="8" stroke="black" stroke-width="0" fill="black" />
<circle cx="513.5791110503451" cy="464.7633021257957" r="8" stroke="black" stroke-width="0" fill="white" />
<circle cx="513.5791110503451" cy="487.7005844745733" r="8" stroke="black" stroke-width="0" fill="white" />
<circle cx="531.6012614672417" cy="476.2319433001845" r="8" stroke="black" stroke-width="0" fill="white" />
<use x="510.90383730988265" y="467.41275464487103" xlink:href="#killer" />
<circle cx="518.9038373098826" cy="475.41275464487103" r="8" stroke="black" stroke-width="0" fill="black" />
<use x="262.6896747498964" y="375.25403092210377" xlink:href="#apple" />
<circle cx="270.6896747498964" cy="383.25403092210377" r="8" stroke="black" stroke-width="0" fill="red" />
<use x="265.96642937115035" y="423.1765672579428" xlink:href="#killer" />
<circle cx="273.96642937115035" cy="431.1765672579428" r="8" stroke="black" stroke-width="0" fill="black" />
<circle cx="276.4239953370908" cy="459.0289815386012" r="8" stroke="black" stroke-width="0" fill="white" />
</svg>