<?xml version="1.0" standalone="no"?><!DOCTYPE svg PUBLIC "-//W3C//DTD SVG 1.1//EN" "http://www.w3.org/Graphics/SVG/1.1/DTD/svg11.dtd">
<svg xmlns="http://www.w3.org/2000/svg" width="890.5627108838388" height="401.4355323170787">
	<rect width="100%" height="100%" style="fill: #181048;" />
	<path fill-rule="evenodd" fill="#3078bc" d="M622.6187443456927 383.9269998938705 L292.4139661886959 391.4355323170787 L269.88836891907124 81.65168703835289 L335.81555890769465 59.15453117942228 L390.2524189759541 64.78593049682843 L467.84058734910536 49.14315461514469 L516.0203370646911 64.78593049682843 L600.7188581113353 58.50037873346096 L619.8883689190712 127.35703402356334 L619.2626578838039 158.6425857869308 L654.3024758587753 168.02825131594105 L626.1454792717448 223.0908224194678 L674.950940022598 240.61073140695356 L640.5368330828937 296.92472458101497 L604.2455930373875 296.92472458101497 L587.9771061204364 348.2330294729377 L631.1511675538835 353.86442879034377 M576.7546524975833 230.01397799544583 L576.7546416736614 230.01398881936785 L557.3172730460049 238.0652105217885 L557.3172577386676 238.0652105217885 L537.8798891110113 230.01398881936785 L537.8798782870892 230.01397799544583 L529.8286565846686 210.57660936778944 L529.8286565846686 210.57659406045218 L537.8798782870892 191.1392254327958 L537.8798891110113 191.13921460887377 L557.3172577386676 183.08799290645317 L557.3172730460049 183.08799290645317 L563.5204902257024 185.65744959262963 L549.3927408613788 151.55004547147186 L455.95207767902565 112.84565550420488 L362.5114144966726 151.5500454714719 L323.8070245294056 244.99070865382498 L362.5114144966726 338.43137183617813 L455.9520776790257 377.1357618034451 L549.3927408613788 338.43137183617813 L588.0971308286457 244.99070865382498 L579.3241091837598 223.81076081574844 M527.4235454139891 229.3479404258099 L520.0517650060597 247.14499266546937 L520.0517541821376 247.1450034893914 L502.25470194247816 254.51678389732083 L502.25468663514096 254.51678389732083 L484.4576343954815 247.1450034893914 L484.45762357155945 247.14499266546937 L477.08584316363 229.3479404258099 L477.08584316363 229.34792511847263 L484.45762357155945 211.55087287881315 L484.4576343954815 211.55086205489113 L502.25468663514096 204.1790816469617 L502.25470194247816 204.1790816469617 L520.0517541821376 211.55086205489113 L520.0517650060597 211.55087287881312 L527.4235454139891 229.34792511847263 M499.57968473703875 308.8132419047633 L475.9811057699383 326.33940737701585 L456.5840528527285 350.1164375410971 L394.0066928412268 318.6524454046708 L394.0066775338896 318.6524454046708 L373.97766792056757 298.1824216139071 L363.34056949710066 272.52825834402375 L366.64756504649625 221.21369696733439 L366.64756504649625 221.21368165999712 L379.6090564140518 189.92187341186286 L379.6090672379737 189.9218625879409 L380.2410347580079 163.82043947977107 L397.7609590528309 155.68619602129553 L470.97540666387744 166.1448432477816 L485.99248233421605 183.03905202392204 L471.42268815000807 229.3479251184726 M584.8058340745692 210.5766017141208 L576.7546187126554 191.13924839380172 L563.520564136065 185.65752350299223 L579.3241091837598 223.8106562907112 M453.2030649657663 203.13097209045125 L446.5664121500154 200.5652465924087 L439.92975933426453 203.13097209045125 L437.1807685021263 209.3251796435861 L439.92975933426453 215.51938719672094 L446.5664121500154 218.0851126947635 L453.2030649657663 215.51938719672094 L455.95205579790456 209.3251796435861 M429.57786795162525 192.08288291798874 L420.28654866878685 188.05102624635123 L410.9952293859484 192.08288291798874 L407.14663843472806 201.81664722037792 L410.9952293859484 211.5504115227671 L420.28654866878685 215.5822681944046 L429.57786795162525 211.5504115227671 L433.4264589028456 201.81664722037792 M646.7939434355673 303.8075459689559 L686.8394496926777 237.4821762306168 L765.0533291010961 223.71653345473516 L783.8246601591165 293.79616940467827 L697.4765372922224 325.70743220331303 L628.0226123775468 343.2273411907988 L601.7427488963181 338.8473639439274 L611.1284144253283 306.31039011002525 M195.03057597254113 80.42870637851215 L256.3502574287413 84.8086836253836 L270.115900204623 219.96226724313104 L270.115900204623 219.96226724313104 L189.39917665513497 185.54816030342687 L109.30816414091427 126.731322988296 L148.10224832748992 108.58570296554288 M192.52773183147173 92.94292708385913 L162.49360213863898 112.33996917714697 L133.7108945163409 122.97705677669191 L179.3878000908574 152.38547543425733 L200.6619752899473 128.60845609409805 M191.90202079620437 126.10561195302864 L176.2592449145206 137.9941216231083 L158.11362489176753 125.4799009177613 L168.1250014560451 121.72563470615721 L185.01919940826355 113.59139124768166 Z" />
<circle cx="439.0578797268073" cy="110.14998055371125" r="8" stroke="black" stroke-width="0" fill="green" />
<circle cx="496.42420509654573" cy="235.91789864244845" r="8" stroke="black" stroke-width="0" fill="white" />
<circle cx="380.8667534469438" cy="263.7620397118455" r="8" stroke="black" stroke-width="0" fill="rgb(255,30,30)" />
<circle cx="18.000000000000007" cy="18" r="8" stroke="black" stroke-width="0" fill="rgb(255,30,30)" />
<circle cx="235.38875978623975" cy="137.93862608895984" r="8" stroke="black" stroke-width="0" fill="black" />
<circle cx="385.31204239743954" cy="260.01901335807975" r="8" stroke="black" stroke-width="0" fill="black" />
<circle cx="488.6520193401594" cy="232.71155831103977" r="8" stroke="black" stroke-width="0" fill="black" />
<circle cx="872.5627108838389" cy="141.15126785919983" r="8" stroke="black" stroke-width="0" fill="black" />
</svg>