<?xml version="1.0" encoding="utf-8"?>
<!-- Generator: Adobe Illustrator 19.0.0, SVG Export Plug-In . SVG Version: 6.00 Build 0)  -->
<svg version="1.1" xmlns="http://www.w3.org/2000/svg" xmlns:xlink="http://www.w3.org/1999/xlink" x="0px" y="0px"
	 viewBox="0 0 40 31" style="enable-background:new 0 0 40 31;" xml:space="preserve">
<style type="text/css">
	.st0{fill:#191341;stroke:#000000;stroke-miterlimit:10;}
	.st1{fill:#210CF5;}
</style>
<g id="shapes">
	<polyline id="XMLID_68_" class="st0" points="17.8,32.9 24.5,27 28,27 28.4,33.4 	"/>
	<polygon id="XMLID_69_" class="st0" points="25.3,19.9 21.3,11.2 19.3,12.9 17.7,11.8 14.9,17.2 16.2,23.5 20.1,24 	"/>
	<polyline id="XMLID_70_" class="st0" points="8.3,31.9 8,22.9 10.1,20 14.9,17.2 16.2,23.5 20.1,24 25.3,19.9 28.6,23.4 28,25.8 
		28,27 24.3,27 18.7,32.1 	"/>
	<polyline id="XMLID_67_" class="st0" points="19.4,-2.8 13,3.9 5.8,-1 	"/>
	<polyline id="XMLID_72_" class="st0" points="-4.4,18.1 10.1,20 8,22.9 8.3,31.3 8.4,33.3 -3.5,32.9 	"/>
	<polyline id="XMLID_63_" class="st0" points="-2.4,18.1 10.1,20 14.9,17.2 17.7,11.8 14.5,9.5 13,3.9 5.8,-1 -2.8,-1 	"/>
	<polyline id="XMLID_62_" class="st0" points="41.8,25 32.2,22.4 28.6,23.4 25.3,19.9 21.3,11.2 26.8,6.6 34.4,6.9 41.5,2.9 	"/>
	<polygon id="XMLID_59_" class="st0" points="41.5,2.9 34.4,6.9 26.8,6.8 28.4,-1 41.3,-1 	"/>
	<polygon id="XMLID_56_" class="st0" points="42.9,25.3 32.2,22.4 28.6,23.4 28,25.8 28.4,33.4 41.3,32.7 	"/>
	<path id="XMLID_60_" class="st0" d="M41.8,9.8l-4.5,0.3c-0.7,0-1.3,0.4-1.7,0.8l-1.4,1.6c-0.6,0.7-0.7,1.8,0,2.5l0.9,1.1
		c0.4,0.5,1,0.8,1.7,1l5.1,0.9V9.8z"/>
	<polyline id="XMLID_57_" class="st0" points="28.4,-1 26.8,6.6 19.3,12.9 14.5,9.5 13,4 17.8,-1 28.3,-1 	"/>
	<polyline id="XMLID_66_" class="st0" points="-1.8,10 4.3,10 5.8,7.5 3.7,5.2 -2.3,4.7 	"/>
</g>
<g id="highlights">
	<path id="XMLID_65_" class="st1" d="M5.8,2l-2,0C3.6,2,3.5,1.8,3.5,1.6V1.6c0-0.2,0.1-0.3,0.3-0.3h2c0.2,0,0.3,0.1,0.3,0.3v0.1
		C6.1,1.8,5.9,2,5.8,2z"/>
	<path id="XMLID_61_" class="st1" d="M3.8,12h-3c-0.1,0-0.2,0.1-0.2,0.2l0,0c0,0.1,0.1,0.5,0.2,0.5h2.9C4,12.6,4,12.2,4,12.1l0,0
		C4,12,3.9,12,3.8,12z"/>
	<path id="XMLID_64_" class="st1" d="M14.2,12.4c0,0.2-0.3,0.4-0.6,0.4c-0.3,0-0.6-0.2-0.6-0.4c0-0.2,0.3-0.6,0.6-0.6
		C13.9,11.8,14.2,12.2,14.2,12.4z"/>
	<path id="XMLID_58_" class="st1" d="M39.4,12.9h-2c-0.2,0-0.4-0.2-0.4-0.4v-0.1c0-0.2,0.2-0.4,0.4-0.4h2c0.2,0,0.4,0.2,0.4,0.4v0.1
		C39.8,12.7,39.6,12.9,39.4,12.9z"/>
</g>
</svg>
