<?xml version="1.0" encoding="UTF-8" standalone="no"?>
<!-- Generator: Adobe Illustrator 19.0.0, SVG Export Plug-In . SVG Version: 6.00 Build 0)  -->

<svg
   xmlns:dc="http://purl.org/dc/elements/1.1/"
   xmlns:cc="http://creativecommons.org/ns#"
   xmlns:rdf="http://www.w3.org/1999/02/22-rdf-syntax-ns#"
   xmlns:svg="http://www.w3.org/2000/svg"
   xmlns="http://www.w3.org/2000/svg"
   xmlns:sodipodi="http://sodipodi.sourceforge.net/DTD/sodipodi-0.dtd"
   xmlns:inkscape="http://www.inkscape.org/namespaces/inkscape"
   version="1.1"
   id="Layer_8"
   inkscape:version="0.91 r13725"
   sodipodi:docname="QKILLER.svg">
  <metadata
     id="metadata3361">
    <rdf:RDF>
      <cc:Work
         rdf:about="">
        <dc:format>image/svg+xml</dc:format>
        <dc:type
           rdf:resource="http://purl.org/dc/dcmitype/StillImage" />
      </cc:Work>
    </rdf:RDF>
  </metadata>
  <defs
     id="defs3359" />
  <sodipodi:namedview
     pagecolor="#ffffff"
     bordercolor="#666666"
     borderopacity="1"
     objecttolerance="10"
     gridtolerance="10"
     guidetolerance="10"
     inkscape:pageopacity="0"
     inkscape:pageshadow="2"
     inkscape:window-width="1343"
     inkscape:window-height="812"
     id="namedview3357"
     showgrid="false"
     inkscape:zoom="8.6"
     inkscape:cx="17.983871"
     inkscape:cy="81.624616"
     inkscape:window-x="335"
     inkscape:window-y="112"
     inkscape:window-maximized="0"
     inkscape:current-layer="Layer_8" />
  <style
     type="text/css"
     id="style3337">
	.st0 { fill: #231F20; }
	.st1 { fill: #941A1D; }
	.st2 { fill: #D91B21; }
</style>
  <polygon
     class="st0"
     points="28.8,2.8 24.5,3.7 20.1,6.6 23.5,7.9 "
     id="polygon3339"
     transform="matrix(0.52761628,0,0,0.52761628,1.0465116,1.5116279)"
     style="fill:#231f20" />
  <polygon
     class="st0"
     points="34.8,18.7 31.6,17.1 28.8,17.1 28.3,13 33.9,17.1 "
     id="polygon3341"
     transform="matrix(0.52761628,0,0,0.52761628,1.0465116,1.5116279)"
     style="fill:#231f20" />
  <polygon
     class="st0"
     points="26.6,32.6 25.6,28.6 24.1,26.3 26.7,24 26.6,28.9 "
     id="polygon3343"
     transform="matrix(0.52761628,0,0,0.52761628,1.0465116,1.5116279)"
     style="fill:#231f20" />
  <polygon
     class="st0"
     points="8.2,29.9 11.1,28.6 13.1,26.6 15.1,27.5 11.6,29.5 "
     id="polygon3345"
     transform="matrix(0.52761628,0,0,0.52761628,1.0465116,1.5116279)"
     style="fill:#231f20" />
  <polygon
     class="st0"
     points="3.9,16.8 0,15.3 3.4,18.3 7.4,19.5 7.4,16.8 "
     id="polygon3347"
     transform="matrix(0.52761628,0,0,0.52761628,1.0465116,1.5116279)"
     style="fill:#231f20" />
  <polygon
     class="st0"
     points="11.7,1.3 11.7,5.3 13.1,7.9 9.6,10.4 9.2,5.6 "
     id="polygon3349"
     transform="matrix(0.52761628,0,0,0.52761628,1.0465116,1.5116279)"
     style="fill:#231f20" />
  <circle
     class="st1"
     cx="10.596367"
     cy="10.533868"
     r="5.8037791"
     id="circle3351"
     style="fill:#941a1d" />
  <polygon
     class="st0"
     points="32.1,26.4 30,23.2 26.6,21.2 23.8,24.1 20.8,31.8 18.1,35.2 19.4,31.6 19.1,25.5 7.3,25.6 2.9,24.5 8.3,23.8 10.5,21.7 7.6,15.1 4.6,11.4 3.6,7.3 7.1,10.9 9.5,12.1 10.9,12.1 13.1,8.8 15.4,3.9 19.5,0 18.9,2.8 18.1,7.1 18.1,8.6 29.8,8.7 35.1,9.8 26.6,11.6 26.1,13.8 31.8,22.9 "
     id="polygon3353"
     transform="matrix(0.52761628,0,0,0.52761628,1.0465116,1.5116279)"
     style="fill:#231f20" />
  <circle
     class="st2"
     cx="10.596367"
     cy="10.533868"
     r="2.6380813"
     id="circle3355"
     style="fill:#d91b21" />
</svg>
