<?xml version="1.0" encoding="utf-8"?>
<!-- Generator: Adobe Illustrator 19.0.0, SVG Export Plug-In . SVG Version: 6.00 Build 0)  -->
<svg version="1.1" id="Layer_8" xmlns="http://www.w3.org/2000/svg" xmlns:xlink="http://www.w3.org/1999/xlink">
<style type="text/css">
	.st0 { fill: #231F20; }
	.st1 { fill: #941A1D; }
	.st2 { fill: #D91B21; }
</style>
	<polygon class="st0" points="20.1,6.6 23.5,7.9 28.8,2.8 24.5,3.7" />
	<polygon class="st0" points="28.3,13 33.9,17.1 34.8,18.7 31.6,17.1 28.8,17.1" />
	<polygon class="st0" points="26.7,24 26.6,28.9 26.6,32.6 25.6,28.6 24.1,26.3" />
	<polygon class="st0" points="15.1,27.5 11.6,29.5 8.2,29.9 11.1,28.6 13.1,26.6" />
	<polygon class="st0" points="7.4,19.5 7.4,16.8 3.9,16.8 0,15.3 3.4,18.3" />
	<polygon class="st0" points="9.6,10.4 9.2,5.6 11.7,1.3 11.7,5.3 13.1,7.9" />

	<circle class="st1" cx="18.1" cy="17.1" r="11" />

	<polygon class="st0" points="26.1,13.8 31.8,22.9 32.1,26.4 30,23.2 26.6,21.2 23.8,24.1 20.8,31.8 18.1,35.2 19.4,31.6 19.1,25.5
		7.3,25.6 2.9,24.5 8.3,23.8 10.5,21.7 7.6,15.1 4.6,11.4 3.6,7.3 7.1,10.9 9.5,12.1 10.9,12.1 13.1,8.8 15.4,3.9 19.5,0 18.9,2.8
		18.1,7.1 18.1,8.6 29.8,8.7 35.1,9.8 26.6,11.6" />

	<circle class="st2" cx="18.1" cy="17.1" r="5" />

</svg>
