<?xml version="1.0" encoding="utf-8"?>
<!-- Generator: Adobe Illustrator 19.0.0, SVG Export Plug-In . SVG Version: 6.00 Build 0)  -->
<svg version="1.1"
	 id="Layer_8" xmlns:sodipodi="http://sodipodi.sourceforge.net/DTD/sodipodi-0.dtd" xmlns:svg="http://www.w3.org/2000/svg" xmlns:dc="http://purl.org/dc/elements/1.1/" xmlns:cc="http://creativecommons.org/ns#" xmlns:rdf="http://www.w3.org/1999/02/22-rdf-syntax-ns#" xmlns:inkscape="http://www.inkscape.org/namespaces/inkscape" sodipodi:docname="QKILLER.svg" inkscape:version="0.91 r13725"
	 xmlns="http://www.w3.org/2000/svg" xmlns:xlink="http://www.w3.org/1999/xlink" x="0px" y="0px" viewBox="0 0 12 12.1"
	 style="enable-background:new 0 0 12 12.1;" xml:space="preserve">
<style type="text/css">
	.st0{fill:#231F20;}
	.st1{fill:#941A1D;}
	.st2{fill:#D91B21;}
</style>
<sodipodi:namedview  inkscape:zoom="8.6" borderopacity="1" bordercolor="#666666" pagecolor="#ffffff" objecttolerance="10" guidetolerance="10" id="namedview3357" inkscape:cy="81.624616" inkscape:cx="17.983871" showgrid="false" gridtolerance="10" inkscape:current-layer="Layer_8" inkscape:window-maximized="0" inkscape:window-y="112" inkscape:window-x="335" inkscape:window-height="812" inkscape:window-width="1343" inkscape:pageshadow="2" inkscape:pageopacity="0">
	</sodipodi:namedview>
<polygon id="polygon3339" class="st0" points="12.7,1.2 10.8,1.6 8.9,2.9 10.4,3.5 "/>
<polygon id="polygon3341" class="st0" points="15.3,8.2 13.9,7.5 12.7,7.5 12.5,5.7 14.9,7.5 "/>
<polygon id="polygon3343" class="st0" points="11.7,14.4 11.3,12.6 10.6,11.6 11.8,10.6 11.7,12.7 "/>
<polygon id="polygon3345" class="st0" points="3.6,13.2 4.9,12.6 5.8,11.7 6.7,12.1 5.1,13 "/>
<polygon id="polygon3347" class="st0" points="1.7,7.4 0,6.7 1.5,8.1 3.3,8.6 3.3,7.4 "/>
<polygon id="polygon3349" class="st0" points="5.2,0.6 5.2,2.3 5.8,3.5 4.2,4.6 4.1,2.5 "/>
<circle id="circle3351" class="st1" cx="8" cy="7.5" r="4.9"/>
<polygon id="polygon3353" class="st0" points="14.2,11.6 13.2,10.2 11.7,9.3 10.5,10.6 9.2,14 8,15.5 8.6,13.9 8.4,11.2 3.2,11.3 
	1.3,10.8 3.7,10.5 4.6,9.6 3.4,6.7 2,5 1.6,3.2 3.1,4.8 4.2,5.3 4.8,5.3 5.8,3.9 6.8,1.7 8.6,0 8.3,1.2 8,3.1 8,3.8 13.1,3.8 
	15.5,4.3 11.7,5.1 11.5,6.1 14,10.1 "/>
<circle id="circle3355" class="st2" cx="8" cy="7.5" r="2.2"/>
</svg>
